<svg width="107" height="107" viewBox="0 0 107 107" fill="none" xmlns="http://www.w3.org/2000/svg">
<g filter="url(#filter0_d_103_572)">
<rect x="30.2725" y="12" width="47.0909" height="47.0909" rx="11.7727" fill="white"/>
</g>
<path fill-rule="evenodd" clip-rule="evenodd" d="M68.8014 35.6305C68.8014 27.7811 62.4751 21.418 54.6741 21.418C46.8732 21.418 40.5469 27.7798 40.5469 35.6305C40.5469 42.7233 45.7134 48.6032 52.4676 49.6712V39.74H48.8779V35.6292H52.4649V32.4997C52.4649 28.9398 54.5746 26.9703 57.801 26.9703C59.3483 26.9703 60.9641 27.2478 60.9641 27.2478V30.7455H59.1828C57.4283 30.7455 56.8793 31.8419 56.8793 32.9653V35.6319H60.7973L60.1717 39.7413H56.8807V49.6725C63.6349 48.6059 68.8001 42.7273 68.8001 35.6319L68.8014 35.6305Z" fill="#1A2E38"/>
<defs>
<filter id="filter0_d_103_572" x="0.840645" y="0.227274" width="105.954" height="105.954" filterUnits="userSpaceOnUse" color-interpolation-filters="sRGB">
<feFlood flood-opacity="0" result="BackgroundImageFix"/>
<feColorMatrix in="SourceAlpha" type="matrix" values="0 0 0 0 0 0 0 0 0 0 0 0 0 0 0 0 0 0 127 0" result="hardAlpha"/>
<feOffset dy="17.6591"/>
<feGaussianBlur stdDeviation="14.7159"/>
<feComposite in2="hardAlpha" operator="out"/>
<feColorMatrix type="matrix" values="0 0 0 0 0.145098 0 0 0 0 0.145098 0 0 0 0 0.145098 0 0 0 0.25 0"/>
<feBlend mode="normal" in2="BackgroundImageFix" result="effect1_dropShadow_103_572"/>
<feBlend mode="normal" in="SourceGraphic" in2="effect1_dropShadow_103_572" result="shape"/>
</filter>
</defs>
</svg>
