<svg width="16" height="16" viewBox="0 0 16 16" fill="none" xmlns="http://www.w3.org/2000/svg">
<path d="M15 15V13.3333C15 12.4493 14.6313 11.6014 13.9749 10.9763C13.3185 10.3512 12.4283 10 11.5 10H4.5C3.57174 10 2.6815 10.3512 2.02513 10.9763C1.36875 11.6014 1 12.4493 1 13.3333V15" stroke="#42C059" stroke-width="2" stroke-linecap="round" stroke-linejoin="round"/>
<path d="M8 1C7.20435 1 6.44129 1.31607 5.87868 1.87868C5.31607 2.44129 5 3.20435 5 4C5 4.79565 5.31607 5.55871 5.87868 6.12132C6.44129 6.68393 7.20435 7 8 7C8.79565 7 9.55871 6.68393 10.1213 6.12132C10.6839 5.55871 11 4.79565 11 4C11 3.20435 10.6839 2.44129 10.1213 1.87868C9.55871 1.31607 8.79565 1 8 1Z" stroke="#42C059" stroke-width="2" stroke-linecap="round" stroke-linejoin="round"/>
</svg>
