<svg width="29" height="28" viewBox="0 0 29 28" fill="none" xmlns="http://www.w3.org/2000/svg">
<path fill-rule="evenodd" clip-rule="evenodd" d="M24.7743 4.06939C23.4338 2.7744 21.8413 1.74818 20.0884 1.0498C18.3356 0.351411 16.457 -0.00534593 14.5607 6.05404e-05C6.60232 6.05404e-05 0.124286 6.22405 0.121524 13.8747C0.118054 16.311 0.783227 18.7046 2.04933 20.812L0 28L7.65461 26.0707C9.77344 27.1791 12.1454 27.7593 14.5552 27.7587H14.5607C22.5178 27.7587 28.9958 21.5333 29 13.8827C29.0046 12.0582 28.6334 10.251 27.908 8.56624C27.1825 6.88152 26.1173 5.35292 24.7743 4.06939ZM14.5607 25.416H14.5552C12.4071 25.4169 10.298 24.8621 8.44727 23.8093L8.00951 23.5587L3.46619 24.704L4.68004 20.448L4.39418 20.0107C3.19291 18.1744 2.55646 16.0466 2.5589 13.8747C2.5589 7.51738 7.94461 2.34406 14.5649 2.34406C17.7408 2.33839 20.7889 3.55098 23.0389 5.71511C25.2889 7.87924 26.5564 10.8177 26.5626 13.884C26.5598 20.2427 21.1769 25.4173 14.5621 25.4173L14.5607 25.416ZM21.1437 16.78C20.7833 16.6067 19.0074 15.7667 18.6787 15.6507C18.3501 15.536 18.107 15.4774 17.8667 15.824C17.6264 16.172 16.9346 16.9507 16.7247 17.184C16.5134 17.4187 16.3035 17.444 15.9431 17.2707C15.5826 17.0974 14.4185 16.732 13.0403 15.5507C11.9687 14.6307 11.2451 13.496 11.0338 13.1494C10.8239 12.8027 11.0117 12.6134 11.1926 12.4414C11.3542 12.2854 11.5516 12.036 11.7339 11.8334C11.9135 11.6307 11.9742 11.4867 12.093 11.2547C12.2131 11.024 12.1537 10.8214 12.0654 10.648C11.9742 10.4747 11.252 8.76804 10.9523 8.07471C10.6582 7.39738 10.3613 7.48938 10.1403 7.47871C9.93041 7.46938 9.68737 7.46538 9.44846 7.46538C9.26568 7.46997 9.08585 7.51095 8.92023 7.58575C8.75461 7.66054 8.60676 7.76754 8.48594 7.90004C8.15451 8.24671 7.22375 9.08671 7.22375 10.7934C7.22375 12.4974 8.5177 14.148 8.69722 14.38C8.87537 14.6107 11.2409 18.112 14.8604 19.6133C15.5315 19.892 16.2193 20.136 16.918 20.344C17.7811 20.608 18.5683 20.5707 19.1897 20.4813C19.8829 20.3813 21.3246 19.6413 21.6257 18.832C21.9253 18.0227 21.9253 17.3294 21.8356 17.184C21.7458 17.04 21.5042 16.952 21.1437 16.78Z" fill="#1A2E38"/>
</svg>
