<svg width="123" height="123" viewBox="0 0 123 123" fill="none" xmlns="http://www.w3.org/2000/svg">
<g filter="url(#filter0_d_14_40)">
<rect x="4" width="114.984" height="114.984" rx="8.15491" fill="#1A2E38"/>
<path d="M27.4579 100.118L27.4573 100.116H96.0482C98.868 100.116 101.447 98.6862 102.928 96.2772C104.41 93.8811 104.538 90.9296 103.289 88.4067L103.288 88.4048L68.5477 18.9715C67.1705 16.2154 64.3979 14.5 61.3194 14.5C58.2409 14.5 55.4682 16.2152 54.0911 18.9715L19.3615 88.4179L19.3615 88.4179C18.0994 90.942 18.2279 93.8816 19.7215 96.2901C21.2036 98.6871 23.7824 100.118 26.6023 100.118H27.4579ZM24.6042 90.9724L59.2969 21.5741C59.2973 21.5733 59.2977 21.5726 59.298 21.5719C59.6977 20.7947 60.4447 20.334 61.3184 20.334C62.1917 20.334 62.9384 20.7941 63.3383 21.5818C63.3385 21.5822 63.3387 21.5826 63.3389 21.583L98.0544 91.0161C98.411 91.7293 98.3739 92.5258 97.9538 93.2167C97.538 93.8974 96.8434 94.2818 96.0353 94.2818H26.6018C25.7963 94.2818 25.1098 93.9002 24.6813 93.2122L24.6812 93.212C24.255 92.5282 24.2232 91.745 24.5839 91.0137L24.6042 90.9724Z" fill="#F6F8FE" stroke="#F6F8FE"/>
<path d="M61.3184 71.4914C62.9243 71.4914 64.2358 70.1798 64.2358 68.574V48.1694C64.2358 46.5635 62.9242 45.252 61.3184 45.252C59.7126 45.252 58.401 46.5636 58.401 48.1694V68.574C58.401 70.1799 59.7126 71.4914 61.3184 71.4914Z" fill="#F6F8FE" stroke="#F6F8FE"/>
<path d="M61.3184 81.2222C62.9243 81.2222 64.2358 79.9106 64.2358 78.3048V77.4346C64.2358 75.8287 62.9242 74.5172 61.3184 74.5172C59.7126 74.5172 58.401 75.8288 58.401 77.4346V78.3048C58.401 79.9107 59.7126 81.2222 61.3184 81.2222Z" fill="#F6F8FE" stroke="#F6F8FE"/>
</g>
<defs>
<filter id="filter0_d_14_40" x="0" y="0" width="122.984" height="122.984" filterUnits="userSpaceOnUse" color-interpolation-filters="sRGB">
<feFlood flood-opacity="0" result="BackgroundImageFix"/>
<feColorMatrix in="SourceAlpha" type="matrix" values="0 0 0 0 0 0 0 0 0 0 0 0 0 0 0 0 0 0 127 0" result="hardAlpha"/>
<feOffset dy="4"/>
<feGaussianBlur stdDeviation="2"/>
<feComposite in2="hardAlpha" operator="out"/>
<feColorMatrix type="matrix" values="0 0 0 0 0 0 0 0 0 0 0 0 0 0 0 0 0 0 0.25 0"/>
<feBlend mode="normal" in2="BackgroundImageFix" result="effect1_dropShadow_14_40"/>
<feBlend mode="normal" in="SourceGraphic" in2="effect1_dropShadow_14_40" result="shape"/>
</filter>
</defs>
</svg>
