<svg width="116" height="116" viewBox="0 0 116 116" fill="none" xmlns="http://www.w3.org/2000/svg">
<rect width="115.873" height="115.873" rx="8.21796" fill="#1A2E38"/>
<path d="M38.1345 30.7064C38.1345 35.1507 34.5321 38.7531 30.0877 38.7531C25.6434 38.7531 22.041 35.1507 22.041 30.7064C22.041 26.2621 25.6434 22.6597 30.0877 22.6597C34.5321 22.6597 38.1345 26.2621 38.1345 30.7064Z" fill="#F6F8FE"/>
<path d="M57.7481 44.8382C57.7481 43.8442 57.3532 42.8907 56.6502 42.1884C55.9472 41.4854 54.9945 41.0906 54.0005 41.0906H25.3232C24.7117 41.0892 24.1112 41.2454 23.5774 41.5439C21.6671 42.1582 20.001 43.3626 18.8187 44.9839C17.637 46.6059 17 48.5608 17 50.5674V64.1172C17 65.2205 17.4389 66.2791 18.2189 67.0592C18.9997 67.8399 20.0575 68.2781 21.1617 68.2781H21.7333V94.3034C21.8007 95.6193 22.5415 96.8073 23.6931 97.4464C24.8453 98.0854 26.2451 98.0854 27.3973 97.4464C28.5488 96.8073 29.2896 95.6194 29.3563 94.3034V68.2781H30.8057L30.8064 94.3034C30.8731 95.6193 31.6139 96.8073 32.7655 97.4464C33.9177 98.0854 35.3174 98.0854 36.4696 97.4464C37.6212 96.8073 38.362 95.6194 38.4287 94.3034V48.5958H54.0002C54.9949 48.5931 55.9482 48.1962 56.6506 47.4918C57.3531 46.7874 57.7478 45.8333 57.7478 44.8387L57.7481 44.8382Z" fill="#F6F8FE"/>
<path d="M96.7112 19H46.8918C46.1908 19 45.5181 19.2786 45.0229 19.7745C44.5269 20.2698 44.249 20.9419 44.249 21.6428V36.0503H49.1109L49.1102 23.8617H94.4726V70.802H49.1102V53.2688H44.249V72.9916C44.249 73.6925 44.5269 74.3646 45.0229 74.8605C45.5182 75.3558 46.1909 75.6343 46.8918 75.6343H69.3353V93.1285H63.6652C62.3238 93.1285 61.2349 94.2133 61.2294 95.5546C61.2294 96.9014 62.3183 97.9944 63.6652 98H79.9858C81.3313 98 82.4215 96.9097 82.4215 95.5642C82.4215 94.919 82.165 94.3006 81.7075 93.8452C81.2508 93.3899 80.631 93.136 79.9858 93.1381H74.1973V75.6641H96.7112C97.4108 75.6613 98.0801 75.382 98.574 74.8867C99.0672 74.3908 99.3444 73.7201 99.3444 73.0212V21.6433C99.3444 20.9444 99.0672 20.2737 98.574 19.7784C98.0801 19.2832 97.4108 19.0032 96.7112 19.0004L96.7112 19Z" fill="#F6F8FE"/>
</svg>
