<svg width="48" height="48" viewBox="0 0 48 48" fill="none" xmlns="http://www.w3.org/2000/svg">
<rect x="0.636353" width="47.0909" height="47.0909" rx="11.7727" fill="white"/>
<path d="M30.1806 11.4377C31.7466 11.4424 33.2471 12.0665 34.3545 13.1739C35.4618 14.2812 36.086 15.7817 36.0906 17.3478V29.1678C36.086 30.7338 35.4618 32.2344 34.3545 33.3417C33.2471 34.449 31.7466 35.0732 30.1806 35.0778H18.3605C16.7946 35.0728 15.2943 34.4486 14.187 33.3413C13.0798 32.234 12.4555 30.7337 12.4505 29.1678V17.3478C12.4552 15.7817 13.0793 14.2812 14.1866 13.1739C15.294 12.0665 16.7945 11.4424 18.3605 11.4377H30.1806ZM30.1806 9.07373H18.3605C13.8095 9.07373 10.0865 12.7967 10.0865 17.3478V29.1678C10.0865 33.7189 13.8095 37.4418 18.3605 37.4418H30.1806C34.7316 37.4418 38.4546 33.7189 38.4546 29.1678V17.3478C38.4546 12.7967 34.7316 9.07373 30.1806 9.07373Z" fill="#1A2E38"/>
<path d="M31.9543 17.348C31.7173 17.3545 31.4815 17.3135 31.2606 17.2273C31.0398 17.1412 30.8385 17.0116 30.6686 16.8463C30.4987 16.681 30.3636 16.4834 30.2714 16.265C30.1792 16.0466 30.1317 15.812 30.1317 15.575C30.1317 15.3379 30.1792 15.1033 30.2714 14.8849C30.3636 14.6665 30.4987 14.4689 30.6686 14.3036C30.8385 14.1383 31.0398 14.0087 31.2606 13.9226C31.4815 13.8364 31.7173 13.7954 31.9543 13.8019C32.416 13.8147 32.8546 14.0071 33.1767 14.3382C33.4988 14.6693 33.679 15.113 33.679 15.575C33.679 16.0369 33.4988 16.4806 33.1767 16.8117C32.8546 17.1428 32.416 17.3352 31.9543 17.348Z" fill="#1A2E38"/>
<path d="M24.2706 18.53C24.8914 18.53 25.5063 18.6523 26.0799 18.8899C26.6535 19.1275 27.1747 19.4758 27.6138 19.9148C28.0528 20.3539 28.4011 20.8751 28.6387 21.4487C28.8763 22.0223 28.9986 22.6371 28.9986 23.258C28.9986 23.8789 28.8763 24.4937 28.6387 25.0674C28.4011 25.641 28.0528 26.1622 27.6138 26.6013C27.1747 27.0403 26.6535 27.3886 26.0799 27.6262C25.5063 27.8638 24.8914 27.9861 24.2706 27.9861C23.0166 27.9861 21.814 27.4879 20.9273 26.6013C20.0407 25.7146 19.5425 24.512 19.5425 23.258C19.5425 22.0041 20.0407 20.8015 20.9273 19.9148C21.814 19.0282 23.0166 18.53 24.2706 18.53ZM24.2706 16.166C22.3896 16.166 20.5857 16.9132 19.2557 18.2432C17.9257 19.5732 17.1785 21.3771 17.1785 23.258C17.1785 25.139 17.9257 26.9428 19.2557 28.2729C20.5857 29.6029 22.3896 30.3501 24.2706 30.3501C26.1515 30.3501 27.9554 29.6029 29.2854 28.2729C30.6154 26.9428 31.3626 25.139 31.3626 23.258C31.3626 21.3771 30.6154 19.5732 29.2854 18.2432C27.9554 16.9132 26.1515 16.166 24.2706 16.166Z" fill="#1A2E38"/>
</svg>
