<svg width="107" height="107" viewBox="0 0 107 107" fill="none" xmlns="http://www.w3.org/2000/svg">
<g filter="url(#filter0_d_103_575)">
<rect x="29.6367" y="12" width="47.0909" height="47.0909" rx="11.7727" fill="white"/>
</g>
<path d="M59.181 23.4377C60.747 23.4424 62.2475 24.0665 63.3549 25.1739C64.4622 26.2812 65.0864 27.7817 65.091 29.3478V41.1678C65.0864 42.7338 64.4622 44.2344 63.3549 45.3417C62.2475 46.449 60.747 47.0732 59.181 47.0778H47.3609C45.795 47.0728 44.2947 46.4486 43.1874 45.3413C42.0802 44.234 41.4559 42.7337 41.4509 41.1678V29.3478C41.4556 27.7817 42.0797 26.2812 43.187 25.1739C44.2944 24.0665 45.7949 23.4424 47.3609 23.4377H59.181ZM59.181 21.0737H47.3609C42.8099 21.0737 39.0869 24.7967 39.0869 29.3478V41.1678C39.0869 45.7189 42.8099 49.4418 47.3609 49.4418H59.181C63.732 49.4418 67.455 45.7189 67.455 41.1678V29.3478C67.455 24.7967 63.732 21.0737 59.181 21.0737Z" fill="#1A2E38"/>
<path d="M60.9545 29.348C60.7175 29.3545 60.4816 29.3135 60.2608 29.2273C60.04 29.1412 59.8387 29.0116 59.6688 28.8463C59.4988 28.681 59.3638 28.4834 59.2716 28.265C59.1793 28.0466 59.1318 27.812 59.1318 27.575C59.1318 27.3379 59.1793 27.1033 59.2716 26.8849C59.3638 26.6665 59.4988 26.4689 59.6688 26.3036C59.8387 26.1383 60.04 26.0087 60.2608 25.9226C60.4816 25.8364 60.7175 25.7954 60.9545 25.8019C61.4162 25.8147 61.8548 26.0071 62.1769 26.3382C62.499 26.6693 62.6792 27.113 62.6792 27.575C62.6792 28.0369 62.499 28.4806 62.1769 28.8117C61.8548 29.1428 61.4162 29.3352 60.9545 29.348Z" fill="#1A2E38"/>
<path d="M53.2707 30.53C53.8916 30.53 54.5064 30.6523 55.0801 30.8899C55.6537 31.1275 56.1749 31.4758 56.6139 31.9148C57.053 32.3539 57.4012 32.8751 57.6389 33.4487C57.8765 34.0223 57.9988 34.6371 57.9988 35.258C57.9988 35.8789 57.8765 36.4937 57.6389 37.0674C57.4012 37.641 57.053 38.1622 56.6139 38.6013C56.1749 39.0403 55.6537 39.3886 55.0801 39.6262C54.5064 39.8638 53.8916 39.9861 53.2707 39.9861C52.0168 39.9861 50.8142 39.4879 49.9275 38.6013C49.0408 37.7146 48.5427 36.512 48.5427 35.258C48.5427 34.0041 49.0408 32.8015 49.9275 31.9148C50.8142 31.0282 52.0168 30.53 53.2707 30.53ZM53.2707 28.166C51.3898 28.166 49.5859 28.9132 48.2559 30.2432C46.9259 31.5732 46.1787 33.3771 46.1787 35.258C46.1787 37.139 46.9259 38.9428 48.2559 40.2729C49.5859 41.6029 51.3898 42.3501 53.2707 42.3501C55.1517 42.3501 56.9555 41.6029 58.2856 40.2729C59.6156 38.9428 60.3628 37.139 60.3628 35.258C60.3628 33.3771 59.6156 31.5732 58.2856 30.2432C56.9555 28.9132 55.1517 28.166 53.2707 28.166Z" fill="#1A2E38"/>
<defs>
<filter id="filter0_d_103_575" x="0.204903" y="0.227274" width="105.954" height="105.954" filterUnits="userSpaceOnUse" color-interpolation-filters="sRGB">
<feFlood flood-opacity="0" result="BackgroundImageFix"/>
<feColorMatrix in="SourceAlpha" type="matrix" values="0 0 0 0 0 0 0 0 0 0 0 0 0 0 0 0 0 0 127 0" result="hardAlpha"/>
<feOffset dy="17.6591"/>
<feGaussianBlur stdDeviation="14.7159"/>
<feComposite in2="hardAlpha" operator="out"/>
<feColorMatrix type="matrix" values="0 0 0 0 0.145098 0 0 0 0 0.145098 0 0 0 0 0.145098 0 0 0 0.25 0"/>
<feBlend mode="normal" in2="BackgroundImageFix" result="effect1_dropShadow_103_575"/>
<feBlend mode="normal" in="SourceGraphic" in2="effect1_dropShadow_103_575" result="shape"/>
</filter>
</defs>
</svg>
