<svg width="246" height="91" viewBox="0 0 246 91" fill="none" xmlns="http://www.w3.org/2000/svg">
<path d="M38.7241 37.8645V28.3723C38.7241 26.5658 37.2634 25.0994 35.4597 25.0994H32.3186V37.8645C32.3186 38.0191 32.1933 38.1446 32.0392 38.1446H25.3234C22.0012 38.1446 19.3071 40.8457 19.3071 44.1765V44.5668H32.0392C32.1933 44.5668 32.3186 44.6924 32.3186 44.847V54.3392C32.3186 56.1456 33.7793 57.6121 35.583 57.6121H38.7241V44.847C38.7241 44.6924 38.8494 44.5668 39.0035 44.5668H45.3301C48.8681 44.5668 51.7356 41.6919 51.7356 38.1446H39.0035C38.8494 38.1446 38.7241 38.0191 38.7241 37.8645Z" fill="#42C059"/>
<path d="M35.5214 91C34.608 91 33.6926 90.7372 32.8967 90.2136L2.15637 69.9715C0.81129 69.0846 0 67.5796 0 65.9644V4.79344C0 2.14652 2.14096 0 4.78102 0H66.2617C68.9018 0 71.0428 2.14652 71.0428 4.79344V16.9403C71.0428 21.0401 67.7282 24.3652 63.6371 24.3652H62.3614C61.8738 24.3652 61.4788 23.9691 61.4788 23.4803V9.58688H9.56204V63.3773L35.5329 80.478L61.4807 63.5435V57.4131C61.4807 53.3132 64.7953 49.9882 68.8864 49.9882H70.1621C70.6497 49.9882 71.0447 50.3842 71.0447 50.8731V66.1441C71.0447 67.7651 70.2276 69.2779 68.8729 70.1608L38.1306 90.2233C37.3367 90.7411 36.429 91 35.5214 91Z" fill="#42C059"/>
<path d="M100.426 65.9122C100.373 64.9075 100.309 63.7019 100.321 62.8035H100.288C100.043 63.6478 99.7443 64.5443 99.382 65.5374L98.114 69.0306H97.4106L96.2486 65.6012C95.9075 64.5868 95.6204 63.6575 95.4181 62.8035H95.3969C95.3757 63.7 95.3217 64.9075 95.2581 65.9856L95.0654 69.0731H94.1809L94.6819 61.8742H95.8652L97.0908 65.3558C97.3894 66.2426 97.6342 67.0328 97.8153 67.7805H97.8481C98.0292 67.0541 98.2855 66.2638 98.6035 65.3558L99.8811 61.8742H101.064L101.511 69.0731H100.606L100.426 65.9122Z" fill="#42C059"/>
<path d="M103.494 66.6599C103.515 67.9312 104.325 68.4548 105.263 68.4548C105.934 68.4548 106.339 68.337 106.691 68.1882L106.851 68.8605C106.522 69.0093 105.957 69.1813 105.136 69.1813C103.548 69.1813 102.6 68.1341 102.6 66.5749C102.6 65.0157 103.515 63.787 105.019 63.787C106.701 63.787 107.15 65.2708 107.15 66.2214C107.15 66.4146 107.129 66.5633 107.117 66.6599H103.494ZM106.244 65.9876C106.256 65.3886 105.999 64.4593 104.945 64.4593C103.997 64.4593 103.581 65.3345 103.508 65.9876H106.244Z" fill="#42C059"/>
<path d="M112.763 61.4897V67.738C112.763 68.1978 112.775 68.7214 112.806 69.0731H111.964L111.921 68.1766H111.9C111.613 68.7543 110.985 69.1909 110.143 69.1909C108.896 69.1909 107.938 68.1341 107.938 66.5633C107.927 64.8438 108.992 63.7869 110.251 63.7869C111.039 63.7869 111.571 64.1618 111.806 64.5772H111.827V61.4897H112.763ZM111.825 66.0088C111.825 65.891 111.813 65.7306 111.783 65.6147C111.644 65.0157 111.133 64.525 110.43 64.525C109.46 64.525 108.884 65.379 108.884 66.5227C108.884 67.5699 109.395 68.4355 110.409 68.4355C111.037 68.4355 111.613 68.0182 111.783 67.3149C111.815 67.1874 111.825 67.0579 111.825 66.9092V66.0088Z" fill="#42C059"/>
<path d="M115.363 62.4519C115.375 62.7726 115.14 63.0296 114.766 63.0296C114.436 63.0296 114.201 62.7726 114.201 62.4519C114.201 62.1215 114.446 61.8645 114.787 61.8645C115.14 61.8645 115.363 62.1196 115.363 62.4519ZM114.319 69.0731V63.9029H115.255V69.0731H114.319Z" fill="#42C059"/>
<path d="M120.487 68.8818C120.242 69.0093 119.699 69.1813 119.007 69.1813C117.452 69.1813 116.44 68.1244 116.44 66.544C116.44 64.952 117.527 63.7985 119.209 63.7985C119.764 63.7985 120.254 63.9376 120.508 64.0652L120.294 64.7916C120.071 64.6641 119.72 64.5462 119.207 64.5462C118.024 64.5462 117.386 65.4215 117.386 66.5015C117.386 67.6974 118.153 68.4355 119.177 68.4355C119.708 68.4355 120.061 68.2964 120.327 68.1785L120.487 68.8818Z" fill="#42C059"/>
<path d="M122.628 62.4519C122.64 62.7726 122.405 63.0296 122.031 63.0296C121.701 63.0296 121.466 62.7726 121.466 62.4519C121.466 62.1215 121.711 61.8645 122.052 61.8645C122.405 61.8645 122.628 62.1196 122.628 62.4519ZM121.584 69.0731V63.9029H122.52V69.0731H121.584Z" fill="#42C059"/>
<path d="M124.077 65.3036C124.077 64.7704 124.068 64.3318 124.035 63.9048H124.865L124.919 64.7588H124.941C125.197 64.268 125.792 63.787 126.644 63.787C127.357 63.787 128.465 64.2139 128.465 65.9876V69.075H127.529V66.0958C127.529 65.2631 127.22 64.5675 126.336 64.5675C125.717 64.5675 125.239 65.0061 125.079 65.5297C125.037 65.6475 125.016 65.8079 125.016 65.9683V69.0769H124.077V65.3036Z" fill="#42C059"/>
<path d="M132.843 69.0731L132.768 68.422H132.735C132.448 68.8277 131.893 69.1909 131.159 69.1909C130.115 69.1909 129.583 68.4548 129.583 67.7071C129.583 66.4571 130.691 65.7731 132.683 65.7847V65.6784C132.683 65.2515 132.566 64.4825 131.512 64.4825C131.032 64.4825 130.531 64.6313 130.169 64.867L129.955 64.2468C130.381 63.9686 130.999 63.787 131.649 63.787C133.225 63.787 133.608 64.865 133.608 65.9026V67.8366C133.608 68.2848 133.63 68.7234 133.693 69.075H132.843V69.0731ZM132.705 66.4358C131.681 66.4146 130.521 66.5962 130.521 67.6008C130.521 68.2094 130.926 68.4973 131.406 68.4973C132.076 68.4973 132.502 68.0703 132.653 67.6318C132.685 67.5352 132.707 67.4289 132.707 67.3323V66.4358H132.705Z" fill="#42C059"/>
<path d="M137.904 66.6599C137.925 67.9312 138.734 68.4548 139.673 68.4548C140.344 68.4548 140.748 68.337 141.101 68.1882L141.261 68.8605C140.931 69.0093 140.367 69.1813 139.546 69.1813C137.958 69.1813 137.01 68.1341 137.01 66.5749C137.01 65.0157 137.925 63.787 139.428 63.787C141.112 63.787 141.56 65.2708 141.56 66.2214C141.56 66.4146 141.538 66.5633 141.527 66.6599H137.904ZM140.652 65.9876C140.663 65.3886 140.407 64.4593 139.353 64.4593C138.405 64.4593 137.989 65.3345 137.915 65.9876H140.652Z" fill="#42C059"/>
<path d="M144.882 67.9409C145.298 68.1978 145.905 68.4104 146.543 68.4104C147.491 68.4104 148.044 67.908 148.044 67.1816C148.044 66.5092 147.661 66.1247 146.691 65.7499C145.52 65.3326 144.795 64.724 144.795 63.7097C144.795 62.5891 145.722 61.7544 147.117 61.7544C147.851 61.7544 148.385 61.9244 148.705 62.1061L148.449 62.8634C148.214 62.7359 147.736 62.5215 147.084 62.5215C146.104 62.5215 145.732 63.1088 145.732 63.5995C145.732 64.2719 146.169 64.6042 147.16 64.9887C148.374 65.4582 148.992 66.0455 148.992 67.1043C148.992 68.2152 148.171 69.1755 146.477 69.1755C145.786 69.1755 145.028 68.9726 144.645 68.7156L144.882 67.9409Z" fill="#42C059"/>
<path d="M150.815 66.6599C150.836 67.9312 151.646 68.4548 152.584 68.4548C153.255 68.4548 153.659 68.337 154.012 68.1882L154.172 68.8605C153.842 69.0093 153.278 69.1813 152.457 69.1813C150.869 69.1813 149.921 68.1341 149.921 66.5749C149.921 65.0157 150.836 63.787 152.339 63.787C154.024 63.787 154.471 65.2708 154.471 66.2214C154.471 66.4146 154.449 66.5633 154.438 66.6599H150.815ZM153.563 65.9876C153.575 65.3886 153.318 64.4593 152.264 64.4593C151.316 64.4593 150.9 65.3345 150.827 65.9876H153.563Z" fill="#42C059"/>
<path d="M160.073 63.9048C160.051 64.2777 160.03 64.695 160.03 65.3249V68.3254C160.03 69.5117 159.795 70.2381 159.296 70.6863C158.795 71.1558 158.07 71.3065 157.421 71.3065C156.802 71.3065 156.122 71.1578 155.706 70.8795L155.941 70.1647C156.282 70.3791 156.814 70.5704 157.454 70.5704C158.413 70.5704 159.115 70.0681 159.115 68.7659V68.1882H159.094C158.806 68.6693 158.252 69.0538 157.454 69.0538C156.176 69.0538 155.259 67.9641 155.259 66.5324C155.259 64.78 156.4 63.787 157.581 63.787C158.475 63.787 158.966 64.2565 159.19 64.6834H159.211L159.254 63.9029H160.073V63.9048ZM159.103 65.9431C159.103 65.7828 159.094 65.6437 159.049 65.5162C158.88 64.9713 158.421 64.5231 157.739 64.5231C156.845 64.5231 156.205 65.2824 156.205 66.4783C156.205 67.4926 156.716 68.337 157.729 68.337C158.305 68.337 158.826 67.9737 159.028 67.3748C159.082 67.2144 159.103 67.0328 159.103 66.8725V65.9431Z" fill="#42C059"/>
<path d="M165.9 67.6646C165.9 68.1978 165.912 68.6693 165.943 69.075H165.112L165.058 68.2307H165.037C164.792 68.648 164.249 69.1928 163.331 69.1928C162.522 69.1928 161.553 68.7446 161.553 66.9285V63.9048H162.491V66.7681C162.491 67.7515 162.79 68.4123 163.642 68.4123C164.27 68.4123 164.707 67.9737 164.877 67.5583C164.931 67.4192 164.962 67.2492 164.962 67.0772V63.9048H165.9V67.6646Z" fill="#42C059"/>
<path d="M167.455 65.5161C167.455 64.9075 167.446 64.384 167.413 63.9029H168.234L168.267 64.9172H168.309C168.544 64.2236 169.109 63.785 169.737 63.785C169.843 63.785 169.918 63.7966 170.003 63.8179V64.7047C169.906 64.6834 169.81 64.6718 169.683 64.6718C169.022 64.6718 168.554 65.1742 168.426 65.8794C168.405 66.0069 168.384 66.1576 168.384 66.3179V69.0731H167.457V65.5161H167.455Z" fill="#42C059"/>
<path d="M173.741 69.0731L173.666 68.422H173.633C173.346 68.8277 172.791 69.1909 172.057 69.1909C171.013 69.1909 170.481 68.4548 170.481 67.7071C170.481 66.4571 171.589 65.7731 173.581 65.7847V65.6784C173.581 65.2515 173.464 64.4825 172.41 64.4825C171.93 64.4825 171.429 64.6313 171.067 64.867L170.853 64.2468C171.279 63.9686 171.897 63.787 172.547 63.787C174.123 63.787 174.506 64.865 174.506 65.9026V67.8366C174.506 68.2848 174.528 68.7234 174.591 69.075H173.741V69.0731ZM173.603 66.4358C172.579 66.4146 171.419 66.5962 171.419 67.6008C171.419 68.2094 171.824 68.4973 172.304 68.4973C172.974 68.4973 173.4 68.0703 173.551 67.6318C173.583 67.5352 173.604 67.4289 173.604 67.3323V66.4358H173.603Z" fill="#42C059"/>
<path d="M176.021 65.3036C176.021 64.7704 176.009 64.3318 175.979 63.9048H176.809L176.863 64.7588H176.884C177.141 64.268 177.736 63.787 178.59 63.787C179.303 63.787 180.411 64.2139 180.411 65.9876V69.075H179.472V66.0958C179.472 65.2631 179.164 64.5675 178.279 64.5675C177.661 64.5675 177.183 65.0061 177.023 65.5297C176.981 65.6475 176.959 65.8079 176.959 65.9683V69.0769H176.023V65.3036H176.021Z" fill="#42C059"/>
<path d="M185.608 68.8818C185.385 68.9996 184.895 69.16 184.277 69.1813L183.999 69.6082C184.394 69.6623 184.745 69.9386 184.745 70.3463C184.745 70.9761 184.223 71.2118 183.637 71.2118C183.371 71.2118 183.093 71.1365 182.912 71.0302L183.072 70.5704C183.242 70.6767 183.456 70.7308 183.648 70.7308C183.883 70.7308 184.107 70.6458 184.107 70.3888C184.095 70.1106 183.777 69.9831 183.276 69.9406L183.723 69.16C182.401 68.99 181.561 67.9853 181.561 66.544C181.561 64.952 182.648 63.7985 184.33 63.7985C184.885 63.7985 185.375 63.9376 185.631 64.0652L185.417 64.7916C185.194 64.6641 184.841 64.5462 184.33 64.5462C183.147 64.5462 182.509 65.4215 182.509 66.5015C182.509 67.6974 183.276 68.4355 184.3 68.4355C184.831 68.4355 185.184 68.2964 185.45 68.1785L185.608 68.8818Z" fill="#42C059"/>
<path d="M189.56 69.0731L189.485 68.422H189.452C189.165 68.8277 188.61 69.1909 187.876 69.1909C186.832 69.1909 186.3 68.4548 186.3 67.7071C186.3 66.4571 187.408 65.7731 189.4 65.7847V65.6784C189.4 65.2515 189.283 64.4825 188.229 64.4825C187.749 64.4825 187.248 64.6313 186.886 64.867L186.672 64.2468C187.098 63.9686 187.716 63.787 188.366 63.787C189.942 63.787 190.325 64.865 190.325 65.9026V67.8366C190.325 68.2848 190.347 68.7234 190.41 69.075H189.56V69.0731ZM189.422 66.4358C188.398 66.4146 187.238 66.5962 187.238 67.6008C187.238 68.2094 187.643 68.4973 188.123 68.4973C188.793 68.4973 189.219 68.0703 189.37 67.6318C189.402 67.5352 189.424 67.4289 189.424 67.3323V66.4358H189.422Z" fill="#42C059"/>
<path d="M198.552 61.4897V67.738C198.552 68.1978 198.564 68.7214 198.594 69.0731H197.752L197.71 68.1766H197.689C197.402 68.7543 196.773 69.1909 195.931 69.1909C194.684 69.1909 193.727 68.1341 193.727 66.5633C193.715 64.8438 194.781 63.7869 196.039 63.7869C196.827 63.7869 197.361 64.1618 197.594 64.5772H197.615V61.4897H198.552ZM197.614 66.0088C197.614 65.891 197.604 65.7306 197.571 65.6147C197.432 65.0157 196.922 64.525 196.218 64.525C195.249 64.525 194.673 65.379 194.673 66.5227C194.673 67.5699 195.184 68.4355 196.197 68.4355C196.825 68.4355 197.402 68.0182 197.571 67.3149C197.604 67.1874 197.614 67.0579 197.614 66.9092V66.0088Z" fill="#42C059"/>
<path d="M204.773 66.4455C204.773 68.3582 203.453 69.1909 202.206 69.1909C200.811 69.1909 199.733 68.165 199.733 66.5305C199.733 64.7993 200.863 63.785 202.291 63.785C203.771 63.787 204.773 64.865 204.773 66.4455ZM200.682 66.4996C200.682 67.6317 201.331 68.4857 202.248 68.4857C203.142 68.4857 203.815 67.6414 203.815 66.4783C203.815 65.6031 203.377 64.4921 202.269 64.4921C201.161 64.4921 200.682 65.5161 200.682 66.4996Z" fill="#42C059"/>
<path d="M209.172 62.6644H206.989V61.8742H212.306V62.6644H210.111V69.0731H209.172V62.6644Z" fill="#42C059"/>
<path d="M212.593 65.5161C212.593 64.9075 212.583 64.384 212.55 63.9029H213.371L213.404 64.9172H213.446C213.681 64.2236 214.246 63.785 214.874 63.785C214.98 63.785 215.055 63.7966 215.14 63.8179V64.7047C215.044 64.6834 214.948 64.6718 214.82 64.6718C214.159 64.6718 213.691 65.1742 213.564 65.8794C213.543 66.0069 213.522 66.1576 213.522 66.3179V69.0731H212.595V65.5161H212.593Z" fill="#42C059"/>
<path d="M218.877 69.0731L218.802 68.422H218.769C218.482 68.8277 217.927 69.1909 217.193 69.1909C216.148 69.1909 215.616 68.4548 215.616 67.7071C215.616 66.4571 216.724 65.7731 218.717 65.7847V65.6784C218.717 65.2515 218.599 64.4825 217.545 64.4825C217.065 64.4825 216.564 64.6313 216.202 64.867L215.988 64.2468C216.414 63.9686 217.033 63.787 217.682 63.787C219.258 63.787 219.642 64.865 219.642 65.9026V67.8366C219.642 68.2848 219.663 68.7234 219.727 69.075H218.877V69.0731ZM218.74 66.4358C217.717 66.4146 216.557 66.5962 216.557 67.6008C216.557 68.2094 216.961 68.4973 217.441 68.4973C218.112 68.4973 218.538 68.0703 218.688 67.6318C218.721 67.5352 218.742 67.4289 218.742 67.3323V66.4358H218.74Z" fill="#42C059"/>
<path d="M221.114 69.0731C221.135 68.7214 221.156 68.1978 221.156 67.738V61.4897H222.083V64.7375H222.105C222.434 64.1598 223.031 63.7869 223.862 63.7869C225.14 63.7869 226.045 64.8554 226.036 66.4261C226.036 68.2732 224.874 69.1929 223.723 69.1929C222.977 69.1929 222.38 68.905 221.997 68.221H221.964L221.921 69.075H221.114V69.0731ZM222.083 67.0019C222.083 67.1198 222.105 67.2376 222.126 67.3439C222.307 67.995 222.85 68.4432 223.532 68.4432C224.513 68.4432 225.099 67.6414 225.099 66.4571C225.099 65.4215 224.567 64.5347 223.565 64.5347C222.925 64.5347 222.33 64.9732 222.137 65.6881C222.116 65.7944 222.083 65.9238 222.083 66.0726V67.0019Z" fill="#42C059"/>
<path d="M230.073 69.0731L229.998 68.422H229.965C229.678 68.8277 229.123 69.1909 228.389 69.1909C227.344 69.1909 226.812 68.4548 226.812 67.7071C226.812 66.4571 227.92 65.7731 229.913 65.7847V65.6784C229.913 65.2515 229.795 64.4825 228.741 64.4825C228.261 64.4825 227.76 64.6313 227.4 64.867L227.186 64.2468C227.612 63.9686 228.231 63.787 228.88 63.787C230.456 63.787 230.84 64.865 230.84 65.9026V67.8366C230.84 68.2848 230.861 68.7234 230.925 69.075H230.073V69.0731ZM229.936 66.4358C228.913 66.4146 227.753 66.5962 227.753 67.6008C227.753 68.2094 228.157 68.4973 228.637 68.4973C229.308 68.4973 229.734 68.0703 229.884 67.6318C229.917 67.5352 229.938 67.4289 229.938 67.3323V66.4358H229.936Z" fill="#42C059"/>
<path d="M232.353 61.4897H233.291V69.0731H232.353V61.4897Z" fill="#42C059"/>
<path d="M234.867 61.4897H235.806V64.7163H235.827C235.975 64.4496 236.211 64.2139 236.498 64.0536C236.775 63.8932 237.105 63.7869 237.457 63.7869C238.149 63.7869 239.257 64.2139 239.257 65.9972V69.0731H238.321V66.1035C238.321 65.2708 238.012 64.5656 237.128 64.5656C236.521 64.5656 236.041 64.9926 235.871 65.5046C235.817 65.6321 235.808 65.7712 235.808 65.9528V69.0711H234.869V61.4897H234.867Z" fill="#42C059"/>
<path d="M245.447 66.4455C245.447 68.3582 244.125 69.1909 242.88 69.1909C241.485 69.1909 240.408 68.165 240.408 66.5305C240.408 64.7993 241.537 63.785 242.965 63.785C244.445 63.787 245.447 64.865 245.447 66.4455ZM241.356 66.4996C241.356 67.6317 242.005 68.4857 242.923 68.4857C243.817 68.4857 244.489 67.6414 244.489 66.4783C244.489 65.6031 244.052 64.4921 242.944 64.4921C241.834 64.4921 241.356 65.5161 241.356 66.4996Z" fill="#42C059"/>
<path d="M115.914 34.5201C115.827 34.126 115.696 32.9435 115.521 31.0173C113.118 30.3159 111.152 30.0107 109.493 30.0107C108.007 30.0107 106.655 30.229 105.387 30.7545C104.121 31.28 103.072 32.0239 102.197 32.988C101.323 33.9521 100.625 35.0901 100.101 36.4908C99.5766 37.8916 99.3145 39.4681 99.3145 41.178C99.3145 42.9729 99.5766 44.5069 100.101 45.9077C100.625 47.3084 101.236 48.4483 102.111 49.4105C102.984 50.3746 103.99 51.074 105.169 51.5995C106.348 52.125 107.572 52.3434 108.927 52.3434C109.713 52.3434 110.455 52.2989 111.11 52.212C111.765 52.125 112.376 51.9937 112.9 51.8178C113.424 51.642 113.949 51.3793 114.428 51.074C114.908 50.7668 115.39 50.3727 115.87 49.936C116.001 49.8046 116.176 49.7177 116.35 49.6288C116.523 49.5399 116.698 49.5419 116.874 49.5419C117.18 49.5419 117.485 49.6288 117.704 49.8916L120.019 52.4322C118.753 54.0088 117.18 55.2356 115.301 56.0664C113.422 56.8992 111.152 57.3358 108.53 57.3358C106.171 57.3358 104.117 56.8972 102.24 56.1089C100.361 55.3207 98.746 54.2252 97.4337 52.78C96.1214 51.3348 95.075 49.6269 94.3755 47.6562C93.6759 45.6855 93.3271 43.539 93.3271 41.1741C93.3271 38.8093 93.7203 36.5758 94.5065 34.6051C95.2927 32.6344 96.3854 30.9709 97.8268 29.5238C99.2683 28.0786 100.927 26.9406 102.937 26.1524C104.903 25.3641 107.131 24.9699 109.534 24.9699C112.154 24.9699 115.475 25.7138 119.45 27.2478V35.3065H116.916C116.352 35.3084 116.045 35.0456 115.914 34.5201Z" fill="#1A2E38"/>
<path d="M142.517 54.3585V56.9417H139.765H139.197H137.362C136.838 56.9417 136.445 56.8972 136.139 56.7233C135.832 56.592 135.614 56.2423 135.483 55.7592L135.004 54.1827C134.435 54.7082 133.911 55.1468 133.344 55.5409C132.82 55.9351 132.209 56.2423 131.641 56.505C131.072 56.7678 130.461 56.9436 129.806 57.075C129.151 57.2064 128.409 57.2933 127.623 57.2933C126.661 57.2933 125.788 57.1619 125.002 56.8992C124.216 56.6364 123.516 56.2867 122.95 55.7612C122.381 55.2357 121.901 54.5788 121.595 53.8349C121.289 53.0911 121.115 52.2139 121.115 51.2073C121.115 50.3746 121.333 49.4994 121.77 48.6667C122.208 47.8339 122.95 47.0901 123.998 46.4332C125.046 45.7763 126.401 45.2063 128.105 44.7697C129.808 44.3311 131.992 44.1128 134.526 44.1128V42.799C134.526 41.2669 134.177 40.1714 133.564 39.4275C132.953 38.6837 132.036 38.3321 130.812 38.3321C129.939 38.3321 129.195 38.419 128.629 38.6393C128.06 38.8576 127.536 39.0778 127.101 39.3406C126.663 39.6034 126.27 39.7792 125.921 39.9975C125.573 40.2158 125.179 40.3047 124.742 40.3047C124.393 40.3047 124.042 40.2178 123.78 40.0419C123.518 39.8661 123.343 39.6034 123.169 39.3406L122.165 37.6327C124.742 35.2678 127.845 34.041 131.469 34.041C132.78 34.041 133.959 34.2593 135.007 34.6979C136.011 35.1364 136.886 35.7489 137.584 36.4927C138.283 37.281 138.894 38.2007 139.243 39.2517C139.592 40.3028 139.767 41.4852 139.767 42.7545V52.6969C140.247 52.7839 140.684 52.8727 140.947 52.9153C141.209 52.9597 141.384 53.0022 141.426 53.0022C142.168 53.1761 142.517 53.6147 142.517 54.3585ZM134.524 47.3954C132.951 47.3954 131.641 47.4823 130.592 47.7026C129.544 47.9228 128.671 48.1836 128.016 48.4908C127.361 48.798 126.923 49.1477 126.661 49.5419C126.399 49.936 126.268 50.4171 126.268 50.9001C126.268 51.8642 126.53 52.5636 127.099 52.9578C127.667 53.3519 128.365 53.5702 129.282 53.5702C129.851 53.5702 130.33 53.5258 130.81 53.4388C131.29 53.3519 131.772 53.1761 132.165 52.9578C132.558 52.7394 132.951 52.5192 133.344 52.2139C133.737 51.9086 134.131 51.557 134.524 51.1629V47.3954Z" fill="#1A2E38"/>
<path d="M182.224 54.4029V56.9861H178.948H173.531V42.7082C173.531 41.263 173.225 40.1675 172.614 39.4681C172.003 38.7243 171.086 38.3726 169.862 38.3726C169.294 38.3726 168.769 38.504 168.29 38.6798C167.81 38.8557 167.417 39.1184 167.066 39.4681C166.715 39.8178 166.455 40.3008 166.235 40.8264C166.018 41.3519 165.929 42.0088 165.929 42.7101V52.6525C166.497 52.7394 166.891 52.8283 167.195 52.8708C167.501 52.9153 167.719 52.9578 167.85 53.0022C167.981 53.0466 168.068 53.0466 168.112 53.0466C168.854 53.2224 169.205 53.6591 169.205 54.4049V56.988H165.929H160.512V42.7101C160.512 41.2205 160.206 40.1269 159.595 39.4256C158.984 38.7243 158.109 38.3746 156.93 38.3746C156.143 38.3746 155.444 38.5504 154.746 38.9445C154.049 39.3387 153.436 39.9086 152.867 40.5655V52.6544C153.392 52.7414 153.829 52.8302 154.133 52.8727C154.438 52.9153 154.658 52.9597 154.789 53.0041C154.92 53.0486 155.006 53.0486 155.051 53.0486C155.793 53.2244 156.143 53.661 156.143 54.4068V56.99H152.867H147.45H144.174V54.4068C144.174 53.663 144.523 53.2244 145.267 53.0486C145.311 53.0486 145.398 53.0041 145.529 53.0041C145.66 53.0041 145.878 52.9172 146.184 52.8727C146.491 52.8283 146.926 52.7414 147.45 52.6544V38.8576C146.926 38.7706 146.489 38.6818 146.184 38.6393C145.878 38.5948 145.66 38.5079 145.529 38.5079C145.398 38.5079 145.311 38.4634 145.267 38.4634C144.525 38.2876 144.132 37.851 144.132 37.1052V34.522H147.452H150.773C151.472 34.522 151.908 34.8717 152.127 35.5286L152.476 37.1922C152.869 36.7536 153.262 36.3169 153.7 35.9653C154.137 35.6156 154.617 35.3084 155.097 35.0456C155.577 34.7829 156.101 34.5646 156.669 34.3887C157.238 34.2129 157.849 34.1704 158.504 34.1704C159.901 34.1704 161.081 34.5201 161.998 35.3084C162.915 36.0967 163.615 37.1033 164.05 38.3746C164.399 37.6307 164.836 36.9738 165.361 36.4483C165.885 35.9228 166.453 35.5286 167.064 35.1789C167.675 34.8292 168.374 34.609 169.074 34.4351C169.773 34.2612 170.515 34.1723 171.215 34.1723C172.439 34.1723 173.529 34.3482 174.491 34.7423C175.452 35.1364 176.281 35.662 176.936 36.4058C177.592 37.1496 178.071 38.0268 178.422 39.0778C178.771 40.1289 178.946 41.3557 178.946 42.712V52.6544C179.47 52.7414 179.908 52.8302 180.212 52.8727C180.519 52.9172 180.736 53.0041 180.868 53.0041C180.999 53.0041 181.085 53.0486 181.13 53.0486C181.875 53.2205 182.224 53.6591 182.224 54.4029Z" fill="#1A2E38"/>
<path d="M198.386 34.8254C199.566 35.264 200.57 35.9634 201.445 36.8405C202.318 37.7157 202.973 38.7668 203.455 40.0381C203.934 41.3074 204.196 42.7101 204.196 44.3311C204.196 44.7252 204.152 45.1194 204.11 45.3821C204.065 45.6449 204.023 45.8632 203.934 45.9946C203.848 46.1704 203.717 46.2574 203.541 46.3443C203.366 46.4313 203.192 46.4313 202.93 46.4313H189.083C189.258 48.7517 189.869 50.4171 190.961 51.5106C192.054 52.6061 193.451 53.1316 195.241 53.1316C196.114 53.1316 196.858 53.0447 197.469 52.8244C198.124 52.6061 198.648 52.3859 199.128 52.1231C199.608 51.8603 200.046 51.6845 200.394 51.4662C200.743 51.2479 201.05 51.159 201.398 51.159C201.616 51.159 201.836 51.2034 202.009 51.2904C202.185 51.3773 202.271 51.4662 202.402 51.6401L203.975 53.6108C203.364 54.3121 202.709 54.9246 201.965 55.4057C201.223 55.8868 200.437 56.2809 199.651 56.5437C198.82 56.8064 197.991 56.9822 197.161 57.1136C196.33 57.245 195.502 57.2894 194.715 57.2894C193.143 57.2894 191.746 57.0711 190.391 56.5456C189.036 56.0201 187.901 55.2318 186.897 54.2252C185.893 53.2186 185.107 51.9473 184.539 50.4577C183.97 48.9681 183.708 47.2176 183.708 45.245C183.708 43.7128 183.97 42.3102 184.45 40.9519C184.93 39.5937 185.674 38.4113 186.591 37.4047C187.508 36.3981 188.643 35.6098 189.956 35.0398C191.266 34.4699 192.838 34.1646 194.5 34.1646C195.897 34.1685 197.207 34.3868 198.386 34.8254ZM190.917 39.3812C190.044 40.2564 189.476 41.5277 189.214 43.1468H199.348C199.348 42.4454 199.217 41.7885 199.042 41.1761C198.866 40.5636 198.562 40.0381 198.169 39.5551C197.775 39.074 197.296 38.7223 196.683 38.4596C196.072 38.1968 195.372 38.021 194.586 38.021C193.014 38.0229 191.79 38.504 190.917 39.3812Z" fill="#1A2E38"/>
<path d="M221.844 49.8471C221.844 50.9426 221.627 51.9492 221.233 52.8689C220.84 53.7885 220.272 54.5768 219.53 55.2337C218.788 55.8906 217.871 56.4161 216.734 56.7658C215.641 57.16 214.331 57.3358 212.889 57.3358C210.093 57.3358 207.386 56.7233 205.769 56.1089V53.9199V49.7583H205.987H206.511H208.301C208.869 49.7583 209.174 50.0655 209.305 50.591C209.349 50.8093 209.436 51.4237 209.611 53.1741C210.791 53.5238 212.188 53.5238 213.149 53.5238C213.805 53.5238 214.373 53.4369 214.809 53.3055C215.288 53.1297 215.639 52.9558 215.944 52.6931C216.248 52.4303 216.468 52.212 216.599 51.8603C216.73 51.5106 216.774 51.159 216.774 50.8093C216.774 50.2838 216.643 49.8896 216.337 49.5399C216.03 49.1902 215.595 48.9275 215.071 48.6647C214.547 48.402 213.978 48.1836 213.323 48.0078C212.668 47.7895 211.968 47.5692 211.27 47.3509C210.573 47.1326 209.916 46.8254 209.261 46.5182C208.605 46.211 207.995 45.8169 207.47 45.3358C206.946 44.8547 206.553 44.2847 206.247 43.5834C205.94 42.8821 205.767 42.0513 205.767 41.0427C205.767 40.1231 205.942 39.2479 206.291 38.4151C206.64 37.5824 207.208 36.8386 207.908 36.2261C208.607 35.6137 209.525 35.0881 210.573 34.7365C211.621 34.3849 212.801 34.1665 214.2 34.1665C216.383 34.1665 217.607 34.3849 220.752 35.349H220.707V41.6996H220.532H220.008H218.218C217.649 41.6996 217.345 41.3924 217.214 40.8669C217.169 40.6486 217.082 40.1231 216.907 38.4151C216.339 38.2393 215.29 38.1079 214.286 38.1079C213.238 38.1079 212.407 38.3263 211.797 38.7648C211.186 39.2034 210.879 39.8159 210.879 40.5597C210.879 41.0408 211.055 41.4349 211.359 41.7866C211.666 42.1363 212.059 42.3565 212.583 42.6193C213.107 42.8821 213.675 43.1448 214.331 43.3206C214.986 43.4965 215.641 43.7148 216.341 43.9331C217.04 44.1514 217.738 44.4586 218.393 44.7658C219.048 45.073 219.617 45.4227 220.141 45.9038C220.665 46.3424 221.058 46.8679 221.364 47.5248C221.671 48.1817 221.844 48.9275 221.844 49.8471Z" fill="#1A2E38"/>
<path d="M239.535 35.0012C240.889 35.5267 242.069 36.2706 243.028 37.2791C243.99 38.2857 244.688 39.4681 245.212 40.9133C245.736 42.3585 245.998 43.935 245.998 45.6874C245.998 47.4823 245.736 49.0589 245.212 50.504C244.688 51.9492 243.988 53.1761 243.028 54.1827C242.067 55.1893 240.887 55.9776 239.535 56.5031C238.18 57.0286 236.652 57.2914 234.991 57.2914C233.33 57.2914 231.759 57.0286 230.404 56.5031C229.05 55.9776 227.87 55.1893 226.911 54.1827C225.949 53.1761 225.163 51.9492 224.639 50.504C224.114 49.0589 223.852 47.4823 223.852 45.6874C223.852 43.935 224.114 42.3585 224.639 40.9133C225.163 39.4681 225.949 38.2857 226.911 37.2791C227.872 36.2725 229.051 35.5267 230.404 35.0012C231.759 34.4757 233.331 34.1685 234.991 34.1685C236.65 34.1685 238.182 34.4757 239.535 35.0012ZM239.099 51.2498C239.972 49.9804 240.454 48.1411 240.454 45.7318C240.454 43.3226 239.974 41.4832 239.099 40.2139C238.226 38.9445 236.871 38.2876 234.993 38.2876C233.114 38.2876 231.717 38.9445 230.799 40.2139C229.882 41.4832 229.402 43.367 229.402 45.7763C229.402 48.1856 229.882 49.9804 230.799 51.2517C231.717 52.5211 233.114 53.1355 234.993 53.1355C236.871 53.1336 238.224 52.5192 239.099 51.2498Z" fill="#1A2E38"/>
</svg>
