<svg width="299" height="111" viewBox="0 0 299 111" fill="none" xmlns="http://www.w3.org/2000/svg">
<g clip-path="url(#clip0_103_526)">
<path d="M47.0671 46.1864V34.608C47.0671 32.4044 45.2917 30.6157 43.0994 30.6157H39.2815V46.1864C39.2815 46.3749 39.1293 46.5281 38.9419 46.5281H30.7792C26.7412 46.5281 23.4668 49.8227 23.4668 53.8857V54.3617H38.9419C39.1293 54.3617 39.2815 54.5149 39.2815 54.7034V66.2818C39.2815 68.4853 41.057 70.2741 43.2493 70.2741H47.0671V54.7034C47.0671 54.5149 47.2194 54.3617 47.4067 54.3617H55.0963C59.3966 54.3617 62.8819 50.855 62.8819 46.5281H47.4067C47.2194 46.5281 47.0671 46.3749 47.0671 46.1864Z" fill="#42C059"/>
<path d="M43.1744 111C42.0641 111 40.9516 110.679 39.9842 110.041L2.62096 85.3498C0.98608 84.2681 0 82.4322 0 80.462V5.84694C0 2.61828 2.60222 0 5.81108 0H80.5377C83.7465 0 86.3487 2.61828 86.3487 5.84694V20.6634C86.3487 25.6643 82.3201 29.7202 77.3475 29.7202H75.797C75.2044 29.7202 74.7242 29.2371 74.7242 28.6408V11.6939H11.6222V77.3064L43.1884 98.1655L74.7266 77.5091V70.0313C74.7266 65.0304 78.7552 60.9746 83.7278 60.9746H85.2783C85.8709 60.9746 86.3511 61.4577 86.3511 62.054V80.6812C86.3511 82.6585 85.358 84.5038 83.7114 85.5808L46.3457 110.053C45.3807 110.684 44.2776 111 43.1744 111Z" fill="#42C059"/>
<path d="M122.064 80.3981C121.998 79.1727 121.921 77.7021 121.935 76.6062H121.895C121.598 77.6361 121.235 78.7296 120.794 79.9409L119.253 84.2018H118.398L116.986 80.0187C116.571 78.7814 116.222 77.6479 115.976 76.6062H115.951C115.925 77.6997 115.859 79.1727 115.782 80.4877L115.548 84.2537H114.473L115.082 75.4727H116.52L118.009 79.7194C118.372 80.8011 118.67 81.765 118.89 82.6771H118.93C119.15 81.7909 119.462 80.827 119.848 79.7194L121.401 75.4727H122.839L123.383 84.2537H122.282L122.064 80.3981Z" fill="#42C059"/>
<path d="M125.793 81.3105C125.819 82.8612 126.802 83.4999 127.943 83.4999C128.758 83.4999 129.25 83.3562 129.679 83.1747L129.873 83.9948C129.472 84.1763 128.786 84.386 127.788 84.386C125.858 84.386 124.706 83.1087 124.706 81.2069C124.706 79.305 125.819 77.8062 127.646 77.8062C129.69 77.8062 130.236 79.6161 130.236 80.7756C130.236 81.0112 130.21 81.1927 130.196 81.3105H125.793ZM129.135 80.4904C129.149 79.7599 128.838 78.6263 127.557 78.6263C126.404 78.6263 125.898 79.6939 125.809 80.4904H129.135Z" fill="#42C059"/>
<path d="M137.058 75.0039V82.6254C137.058 83.1863 137.072 83.825 137.11 84.2539H136.086L136.035 83.1604H136.009C135.66 83.8651 134.897 84.3977 133.873 84.3977C132.358 84.3977 131.193 83.1086 131.193 81.1926C131.179 79.0951 132.475 77.806 134.004 77.806C134.962 77.806 135.609 78.2632 135.894 78.7699H135.92V75.0039H137.058ZM135.918 80.5162C135.918 80.3724 135.904 80.1768 135.866 80.0354C135.698 79.3049 135.077 78.7063 134.222 78.7063C133.044 78.7063 132.344 79.7479 132.344 81.1431C132.344 82.4204 132.964 83.4762 134.196 83.4762C134.96 83.4762 135.66 82.9672 135.866 82.1093C135.906 81.9538 135.918 81.7959 135.918 81.6144V80.5162Z" fill="#42C059"/>
<path d="M140.218 76.1774C140.232 76.5686 139.946 76.882 139.492 76.882C139.091 76.882 138.806 76.5686 138.806 76.1774C138.806 75.7744 139.103 75.4609 139.518 75.4609C139.946 75.4609 140.218 75.772 140.218 76.1774ZM138.949 84.2537V77.9472H140.087V84.2537H138.949Z" fill="#42C059"/>
<path d="M146.446 84.0208C146.149 84.1763 145.488 84.386 144.647 84.386C142.757 84.386 141.527 83.0969 141.527 81.1692C141.527 79.2273 142.848 77.8203 144.893 77.8203C145.568 77.8203 146.163 77.99 146.472 78.1455L146.212 79.0317C145.94 78.8761 145.514 78.7323 144.891 78.7323C143.453 78.7323 142.677 79.7999 142.677 81.1173C142.677 82.5761 143.61 83.4764 144.853 83.4764C145.5 83.4764 145.928 83.3067 146.252 83.1629L146.446 84.0208Z" fill="#42C059"/>
<path d="M149.049 76.1774C149.063 76.5686 148.777 76.882 148.323 76.882C147.922 76.882 147.637 76.5686 147.637 76.1774C147.637 75.7744 147.934 75.4609 148.349 75.4609C148.777 75.4609 149.049 75.772 149.049 76.1774ZM147.78 84.2537V77.9472H148.918V84.2537H147.78Z" fill="#42C059"/>
<path d="M150.81 79.6562C150.81 79.0057 150.799 78.4707 150.759 77.9499H151.768L151.834 78.9916H151.86C152.171 78.393 152.895 77.8062 153.93 77.8062C154.797 77.8062 156.144 78.327 156.144 80.4904V84.2564H155.005V80.6224C155.005 79.6067 154.63 78.7583 153.555 78.7583C152.804 78.7583 152.223 79.2932 152.028 79.9319C151.977 80.0756 151.951 80.2713 151.951 80.4669V84.2588H150.81V79.6562Z" fill="#42C059"/>
<path d="M161.465 84.2541L161.374 83.4599H161.334C160.985 83.9548 160.31 84.3978 159.418 84.3978C158.148 84.3978 157.502 83.4999 157.502 82.5879C157.502 81.0631 158.849 80.2288 161.271 80.243V80.1134C161.271 79.5925 161.128 78.6546 159.847 78.6546C159.263 78.6546 158.654 78.836 158.214 79.1235L157.954 78.367C158.472 78.0277 159.223 77.8062 160.013 77.8062C161.929 77.8062 162.395 79.1212 162.395 80.3867V82.7458C162.395 83.2925 162.421 83.8275 162.498 84.2564H161.465V84.2541ZM161.296 81.0372C160.053 81.0112 158.643 81.2328 158.643 82.4583C158.643 83.2006 159.134 83.5518 159.718 83.5518C160.533 83.5518 161.05 83.0309 161.233 82.496C161.273 82.3781 161.299 82.2485 161.299 82.1307V81.0372H161.296Z" fill="#42C059"/>
<path d="M167.615 81.3105C167.641 82.8612 168.625 83.4999 169.765 83.4999C170.58 83.4999 171.072 83.3562 171.501 83.1747L171.695 83.9948C171.295 84.1763 170.608 84.386 169.611 84.386C167.681 84.386 166.528 83.1087 166.528 81.2069C166.528 79.305 167.641 77.8062 169.468 77.8062C171.515 77.8062 172.058 79.6161 172.058 80.7756C172.058 81.0112 172.033 81.1927 172.019 81.3105H167.615ZM170.955 80.4904C170.969 79.7599 170.658 78.6263 169.376 78.6263C168.224 78.6263 167.718 79.6939 167.629 80.4904H170.955Z" fill="#42C059"/>
<path d="M176.097 82.8728C176.603 83.1862 177.34 83.4454 178.116 83.4454C179.268 83.4454 179.94 82.8327 179.94 81.9466C179.94 81.1265 179.474 80.6575 178.296 80.2003C176.872 79.6912 175.991 78.9489 175.991 77.7116C175.991 76.3447 177.118 75.3267 178.814 75.3267C179.706 75.3267 180.355 75.5341 180.744 75.7556L180.432 76.6794C180.146 76.5239 179.566 76.2623 178.774 76.2623C177.582 76.2623 177.13 76.9787 177.13 77.5773C177.13 78.3974 177.661 78.8028 178.865 79.2718C180.341 79.8444 181.093 80.5609 181.093 81.8523C181.093 83.2074 180.095 84.3787 178.036 84.3787C177.195 84.3787 176.275 84.1312 175.809 83.8178L176.097 82.8728Z" fill="#42C059"/>
<path d="M183.308 81.3105C183.334 82.8612 184.318 83.4999 185.459 83.4999C186.274 83.4999 186.766 83.3562 187.194 83.1747L187.389 83.9948C186.988 84.1763 186.302 84.386 185.304 84.386C183.374 84.386 182.222 83.1087 182.222 81.2069C182.222 79.305 183.334 77.8062 185.161 77.8062C187.208 77.8062 187.752 79.6161 187.752 80.7756C187.752 81.0112 187.726 81.1927 187.712 81.3105H183.308ZM186.649 80.4904C186.663 79.7599 186.351 78.6263 185.07 78.6263C183.917 78.6263 183.412 79.6939 183.323 80.4904H186.649Z" fill="#42C059"/>
<path d="M194.561 77.9499C194.535 78.4048 194.509 78.9138 194.509 79.6821V83.342C194.509 84.789 194.224 85.6751 193.617 86.2219C193.008 86.7946 192.127 86.9784 191.338 86.9784C190.586 86.9784 189.759 86.7969 189.253 86.4576L189.539 85.5856C189.954 85.8472 190.6 86.0805 191.378 86.0805C192.544 86.0805 193.397 85.4677 193.397 83.8793V83.1747H193.371C193.022 83.7615 192.347 84.2305 191.378 84.2305C189.825 84.2305 188.71 82.9013 188.71 81.155C188.71 79.0175 190.097 77.8062 191.532 77.8062C192.619 77.8062 193.216 78.3788 193.488 78.8997H193.514L193.565 77.9476H194.561V77.9499ZM193.383 80.4362C193.383 80.2406 193.371 80.0709 193.317 79.9154C193.111 79.2508 192.554 78.704 191.724 78.704C190.638 78.704 189.86 79.6302 189.86 81.089C189.86 82.3263 190.481 83.3562 191.713 83.3562C192.413 83.3562 193.045 82.9131 193.291 82.1825C193.357 81.9869 193.383 81.7654 193.383 81.5698V80.4362Z" fill="#42C059"/>
<path d="M201.643 82.5358C201.643 83.1863 201.657 83.7613 201.695 84.2562H200.685L200.62 83.2263H200.594C200.297 83.7354 199.636 84.4 198.521 84.4C197.538 84.4 196.359 83.8532 196.359 81.6379V77.9497H197.5V81.4423C197.5 82.6419 197.863 83.4479 198.898 83.4479C199.662 83.4479 200.194 82.9129 200.4 82.4062C200.465 82.2365 200.503 82.0291 200.503 81.8194V77.9497H201.643V82.5358Z" fill="#42C059"/>
<path d="M203.534 79.9153C203.534 79.1729 203.522 78.5343 203.482 77.9475H204.48L204.52 79.1847H204.572C204.857 78.3387 205.544 77.8037 206.307 77.8037C206.436 77.8037 206.527 77.8178 206.63 77.8438V78.9255C206.513 78.8996 206.396 78.8854 206.242 78.8854C205.438 78.8854 204.869 79.4982 204.714 80.3584C204.689 80.5139 204.663 80.6977 204.663 80.8933V84.254H203.536V79.9153H203.534Z" fill="#42C059"/>
<path d="M211.174 84.2541L211.083 83.4599H211.043C210.694 83.9548 210.019 84.3978 209.127 84.3978C207.857 84.3978 207.211 83.4999 207.211 82.5879C207.211 81.0631 208.558 80.2288 210.98 80.243V80.1134C210.98 79.5925 210.837 78.6546 209.556 78.6546C208.972 78.6546 208.363 78.836 207.923 79.1235L207.663 78.367C208.181 78.0277 208.932 77.8062 209.722 77.8062C211.638 77.8062 212.104 79.1212 212.104 80.3867V82.7458C212.104 83.2925 212.13 83.8275 212.207 84.2564H211.174V84.2541ZM211.005 81.0372C209.762 81.0112 208.352 81.2328 208.352 82.4583C208.352 83.2006 208.843 83.5518 209.427 83.5518C210.242 83.5518 210.759 83.0309 210.942 82.496C210.982 82.3781 211.008 82.2485 211.008 82.1307V81.0372H211.005Z" fill="#42C059"/>
<path d="M213.945 79.6562C213.945 79.0057 213.931 78.4707 213.894 77.9499H214.903L214.969 78.9916H214.994C215.306 78.393 216.03 77.8062 217.067 77.8062C217.934 77.8062 219.281 78.327 219.281 80.4904V84.2564H218.14V80.6224C218.14 79.6067 217.765 78.7583 216.69 78.7583C215.938 78.7583 215.357 79.2932 215.163 79.9319C215.112 80.0756 215.086 80.2713 215.086 80.4669V84.2588H213.947V79.6562H213.945Z" fill="#42C059"/>
<path d="M225.597 84.0208C225.326 84.1645 224.731 84.3601 223.979 84.386L223.642 84.9069C224.122 84.9729 224.548 85.3099 224.548 85.8071C224.548 86.5754 223.913 86.8629 223.201 86.8629C222.878 86.8629 222.541 86.771 222.321 86.6414L222.515 86.0805C222.721 86.2101 222.981 86.2761 223.215 86.2761C223.501 86.2761 223.773 86.1724 223.773 85.859C223.759 85.5196 223.372 85.3641 222.763 85.3122L223.307 84.3601C221.7 84.1527 220.679 82.9273 220.679 81.1692C220.679 79.2273 222 77.8203 224.044 77.8203C224.719 77.8203 225.314 77.99 225.626 78.1455L225.366 79.0317C225.094 78.8761 224.665 78.7323 224.044 78.7323C222.606 78.7323 221.831 79.7999 221.831 81.1173C221.831 82.5761 222.763 83.4764 224.007 83.4764C224.653 83.4764 225.082 83.3067 225.405 83.1629L225.597 84.0208Z" fill="#42C059"/>
<path d="M230.402 84.2541L230.31 83.4599H230.27C229.921 83.9548 229.247 84.3978 228.354 84.3978C227.085 84.3978 226.438 83.4999 226.438 82.5879C226.438 81.0631 227.785 80.2288 230.207 80.243V80.1134C230.207 79.5925 230.064 78.6546 228.783 78.6546C228.2 78.6546 227.591 78.836 227.151 79.1235L226.891 78.367C227.408 78.0277 228.16 77.8062 228.949 77.8062C230.865 77.8062 231.331 79.1212 231.331 80.3867V82.7458C231.331 83.2925 231.357 83.8275 231.434 84.2564H230.402V84.2541ZM230.233 81.0372C228.989 81.0112 227.579 81.2328 227.579 82.4583C227.579 83.2006 228.071 83.5518 228.654 83.5518C229.469 83.5518 229.987 83.0309 230.17 82.496C230.209 82.3781 230.235 82.2485 230.235 82.1307V81.0372H230.233Z" fill="#42C059"/>
<path d="M241.33 75.0039V82.6254C241.33 83.1863 241.344 83.825 241.381 84.2539H240.358L240.306 83.1604H240.281C239.932 83.8651 239.168 84.3977 238.144 84.3977C236.629 84.3977 235.465 83.1086 235.465 81.1926C235.451 79.0951 236.746 77.806 238.276 77.806C239.234 77.806 239.882 78.2632 240.166 78.7699H240.192V75.0039H241.33ZM240.189 80.5162C240.189 80.3724 240.178 80.1768 240.138 80.0354C239.969 79.3049 239.348 78.7063 238.493 78.7063C237.315 78.7063 236.615 79.7479 236.615 81.1431C236.615 82.4204 237.236 83.4762 238.468 83.4762C239.231 83.4762 239.932 82.9672 240.138 82.1093C240.178 81.9538 240.189 81.7959 240.189 81.6144V80.5162Z" fill="#42C059"/>
<path d="M248.891 81.0489C248.891 83.382 247.286 84.3977 245.771 84.3977C244.075 84.3977 242.766 83.1463 242.766 81.1526C242.766 79.041 244.138 77.8037 245.874 77.8037C247.673 77.8061 248.891 79.1211 248.891 81.0489ZM243.918 81.1149C243.918 82.4959 244.707 83.5375 245.822 83.5375C246.909 83.5375 247.726 82.5077 247.726 81.0889C247.726 80.0213 247.195 78.6663 245.848 78.6663C244.501 78.6663 243.918 79.9153 243.918 81.1149Z" fill="#42C059"/>
<path d="M254.239 76.4365H251.585V75.4727H258.047V76.4365H255.379V84.2537H254.239V76.4365Z" fill="#42C059"/>
<path d="M258.396 79.9153C258.396 79.1729 258.385 78.5343 258.345 77.9475H259.343L259.382 79.1847H259.434C259.72 78.3387 260.406 77.8037 261.169 77.8037C261.298 77.8037 261.39 77.8178 261.493 77.8438V78.9255C261.376 78.8996 261.258 78.8854 261.104 78.8854C260.3 78.8854 259.731 79.4982 259.577 80.3584C259.551 80.5139 259.525 80.6977 259.525 80.8933V84.254H258.399V79.9153H258.396Z" fill="#42C059"/>
<path d="M266.033 84.2541L265.942 83.4599H265.902C265.553 83.9548 264.879 84.3978 263.986 84.3978C262.717 84.3978 262.07 83.4999 262.07 82.5879C262.07 81.0631 263.417 80.2288 265.839 80.243V80.1134C265.839 79.5925 265.696 78.6546 264.415 78.6546C263.832 78.6546 263.223 78.836 262.782 79.1235L262.522 78.367C263.04 78.0277 263.792 77.8062 264.581 77.8062C266.497 77.8062 266.963 79.1212 266.963 80.3867V82.7458C266.963 83.2925 266.989 83.8275 267.066 84.2564H266.033V84.2541ZM265.867 81.0372C264.623 81.0112 263.213 81.2328 263.213 82.4583C263.213 83.2006 263.705 83.5518 264.288 83.5518C265.103 83.5518 265.621 83.0309 265.804 82.496C265.844 82.3781 265.869 82.2485 265.869 82.1307V81.0372H265.867Z" fill="#42C059"/>
<path d="M268.753 84.2539C268.779 83.825 268.804 83.1863 268.804 82.6254V75.0039H269.931V78.9655H269.957C270.357 78.2608 271.083 77.806 272.093 77.806C273.646 77.806 274.747 79.1093 274.735 81.0252C274.735 83.2782 273.323 84.4 271.924 84.4C271.018 84.4 270.292 84.0489 269.826 83.2146H269.786L269.734 84.2563H268.753V84.2539ZM269.931 81.7275C269.931 81.8713 269.957 82.015 269.983 82.1447C270.203 82.9389 270.863 83.4856 271.692 83.4856C272.885 83.4856 273.597 82.5076 273.597 81.0629C273.597 79.7998 272.95 78.718 271.732 78.718C270.955 78.718 270.231 79.253 269.997 80.125C269.971 80.2546 269.931 80.4125 269.931 80.594V81.7275Z" fill="#42C059"/>
<path d="M279.642 84.2541L279.55 83.4599H279.511C279.162 83.9548 278.487 84.3978 277.595 84.3978C276.325 84.3978 275.679 83.4999 275.679 82.5879C275.679 81.0631 277.025 80.2288 279.447 80.243V80.1134C279.447 79.5925 279.304 78.6546 278.023 78.6546C277.44 78.6546 276.831 78.836 276.393 79.1235L276.133 78.367C276.651 78.0277 277.403 77.8062 278.192 77.8062C280.108 77.8062 280.574 79.1212 280.574 80.3867V82.7458C280.574 83.2925 280.6 83.8275 280.677 84.2564H279.642V84.2541ZM279.475 81.0372C278.232 81.0112 276.822 81.2328 276.822 82.4583C276.822 83.2006 277.314 83.5518 277.897 83.5518C278.712 83.5518 279.23 83.0309 279.412 82.496C279.452 82.3781 279.478 82.2485 279.478 82.1307V81.0372H279.475Z" fill="#42C059"/>
<path d="M282.413 75.0039H283.554V84.2539H282.413V75.0039Z" fill="#42C059"/>
<path d="M285.47 75.0039H286.61V78.9396H286.636C286.817 78.6143 287.102 78.3268 287.451 78.1312C287.789 77.9356 288.189 77.806 288.618 77.806C289.459 77.806 290.805 78.3268 290.805 80.5021V84.2539H289.667V80.6317C289.667 79.6159 289.292 78.7557 288.217 78.7557C287.479 78.7557 286.896 79.2766 286.69 79.9011C286.624 80.0566 286.613 80.2263 286.613 80.4478V84.2515H285.472V75.0039H285.47Z" fill="#42C059"/>
<path d="M298.328 81.0489C298.328 83.382 296.721 84.3977 295.208 84.3977C293.512 84.3977 292.203 83.1463 292.203 81.1526C292.203 79.041 293.576 77.8037 295.311 77.8037C297.11 77.8061 298.328 79.1211 298.328 81.0489ZM293.355 81.1149C293.355 82.4959 294.145 83.5375 295.26 83.5375C296.347 83.5375 297.164 82.5077 297.164 81.0889C297.164 80.0213 296.632 78.6663 295.285 78.6663C293.936 78.6663 293.355 79.9153 293.355 81.1149Z" fill="#42C059"/>
<path d="M140.888 42.1071C140.782 41.6264 140.623 40.1841 140.41 37.8344C137.489 36.979 135.1 36.6066 133.084 36.6066C131.278 36.6066 129.633 36.8729 128.092 37.5139C126.553 38.1549 125.279 39.0623 124.216 40.2383C123.152 41.4143 122.305 42.8023 121.668 44.5109C121.03 46.2195 120.712 48.1426 120.712 50.2283C120.712 52.4176 121.03 54.2888 121.668 55.9974C122.305 57.706 123.047 59.0965 124.11 60.2701C125.172 61.4461 126.394 62.2992 127.828 62.9402C129.261 63.5813 130.748 63.8476 132.395 63.8476C133.351 63.8476 134.252 63.7934 135.049 63.6873C135.845 63.5813 136.588 63.421 137.225 63.2065C137.862 62.9921 138.499 62.6716 139.082 62.2992C139.665 61.9245 140.251 61.4437 140.834 60.9111C140.993 60.7509 141.206 60.6448 141.417 60.5364C141.628 60.428 141.841 60.4304 142.054 60.4304C142.427 60.4304 142.797 60.5364 143.064 60.8569L145.877 63.956C144.338 65.879 142.427 67.3755 140.143 68.3889C137.859 69.4046 135.1 69.9372 131.912 69.9372C129.046 69.9372 126.549 69.4023 124.267 68.4407C121.984 67.4792 120.021 66.143 118.426 64.3802C116.831 62.6174 115.559 60.5341 114.709 58.1302C113.859 55.7264 113.435 53.1081 113.435 50.2235C113.435 47.339 113.912 44.6146 114.868 42.2108C115.824 39.807 117.152 37.7779 118.904 36.0127C120.656 34.2499 122.672 32.8618 125.115 31.9003C127.504 30.9388 130.212 30.458 133.133 30.458C136.318 30.458 140.354 31.3653 145.186 33.2365V43.0663H142.106C141.42 43.0686 141.047 42.7481 140.888 42.1071Z" fill="white"/>
<path d="M173.223 66.3054V69.4563H169.878H169.187H166.957C166.32 69.4563 165.842 69.4021 165.47 69.19C165.098 69.0297 164.833 68.6032 164.674 68.014L164.09 66.0909C163.399 66.732 162.762 67.2669 162.074 67.7477C161.437 68.2284 160.694 68.6032 160.003 68.9237C159.312 69.2442 158.57 69.4586 157.773 69.6189C156.977 69.7791 156.075 69.8852 155.12 69.8852C153.951 69.8852 152.89 69.7249 151.934 69.4044C150.979 69.0839 150.128 68.6574 149.44 68.0163C148.749 67.3753 148.166 66.5741 147.793 65.6667C147.421 64.7594 147.21 63.6895 147.21 62.4616C147.21 61.4459 147.475 60.3783 148.006 59.3626C148.538 58.3469 149.44 57.4395 150.714 56.6383C151.988 55.837 153.635 55.1418 155.705 54.6091C157.776 54.0742 160.43 53.8079 163.51 53.8079V52.2053C163.51 50.3365 163.086 49.0002 162.341 48.0929C161.598 47.1856 160.483 46.7567 158.996 46.7567C157.935 46.7567 157.031 46.8627 156.342 47.1314C155.651 47.3977 155.014 47.6663 154.485 47.9869C153.953 48.3074 153.475 48.5218 153.051 48.7881C152.628 49.0544 152.15 49.1628 151.618 49.1628C151.194 49.1628 150.768 49.0568 150.449 48.8423C150.131 48.6279 149.918 48.3074 149.707 47.9869L148.486 45.9035C151.618 43.019 155.389 41.5225 159.795 41.5225C161.387 41.5225 162.821 41.7888 164.095 42.3237C165.315 42.8587 166.379 43.6058 167.227 44.5131C168.077 45.4746 168.819 46.5964 169.243 47.8784C169.667 49.1605 169.88 50.6028 169.88 52.1511V64.2786C170.464 64.3847 170.995 64.4931 171.314 64.5449C171.632 64.5991 171.846 64.651 171.897 64.651C172.799 64.8631 173.223 65.3981 173.223 66.3054ZM163.507 57.8119C161.596 57.8119 160.003 57.9179 158.729 58.1866C157.455 58.4553 156.394 58.7734 155.597 59.1481C154.801 59.5228 154.269 59.9494 153.951 60.4302C153.632 60.9109 153.473 61.4977 153.473 62.0869C153.473 63.2629 153.792 64.116 154.483 64.5968C155.174 65.0776 156.021 65.3439 157.136 65.3439C157.827 65.3439 158.411 65.2897 158.994 65.1836C159.577 65.0776 160.163 64.8631 160.64 64.5968C161.118 64.3305 161.596 64.0618 162.074 63.6895C162.552 63.3171 163.029 62.8882 163.507 62.4074V57.8119Z" fill="white"/>
<path d="M221.484 66.3599V69.5108H217.503H210.919V52.0949C210.919 50.3321 210.546 48.9958 209.804 48.1427C209.061 47.2354 207.946 46.8065 206.459 46.8065C205.768 46.8065 205.131 46.9667 204.548 47.1812C203.965 47.3956 203.487 47.7161 203.06 48.1427C202.634 48.5693 202.318 49.1584 202.051 49.7995C201.786 50.4405 201.679 51.2417 201.679 52.0972V64.2247C202.369 64.3308 202.847 64.4392 203.217 64.491C203.59 64.5452 203.854 64.5971 204.014 64.6513C204.173 64.7055 204.278 64.7055 204.332 64.7055C205.234 64.92 205.66 65.4526 205.66 66.3623V69.5131H201.679H195.095V52.0972C195.095 50.2802 194.722 48.9463 193.98 48.0909C193.237 47.2354 192.174 46.8088 190.74 46.8088C189.785 46.8088 188.934 47.0233 188.087 47.504C187.239 47.9848 186.494 48.68 185.803 49.4813V64.2271C186.44 64.3331 186.972 64.4416 187.342 64.4934C187.712 64.5453 187.979 64.5995 188.138 64.6537C188.297 64.7079 188.403 64.7079 188.457 64.7079C189.358 64.9223 189.785 65.4549 189.785 66.3646V69.5155H185.803H179.219H175.237V66.3646C175.237 65.4573 175.661 64.9223 176.565 64.7079C176.619 64.7079 176.724 64.6537 176.884 64.6537C177.043 64.6537 177.308 64.5476 177.68 64.4934C178.052 64.4392 178.582 64.3331 179.219 64.2271V47.398C178.582 47.2919 178.05 47.1835 177.68 47.1317C177.308 47.0775 177.043 46.9714 176.884 46.9714C176.724 46.9714 176.619 46.9172 176.565 46.9172C175.663 46.7028 175.186 46.1702 175.186 45.2605V42.1096H179.221H183.257C184.107 42.1096 184.636 42.5361 184.903 43.3374L185.327 45.3665C185.805 44.8316 186.283 44.2989 186.815 43.87C187.346 43.4435 187.93 43.0688 188.513 42.7482C189.096 42.4277 189.733 42.1614 190.424 41.947C191.115 41.7325 191.858 41.6807 192.654 41.6807C194.352 41.6807 195.785 42.1072 196.9 43.0688C198.015 44.0303 198.866 45.2581 199.395 46.8088C199.819 45.9015 200.35 45.1002 200.988 44.4592C201.625 43.8182 202.316 43.3374 203.058 42.9109C203.801 42.4843 204.651 42.2156 205.501 42.0035C206.351 41.7914 207.253 41.683 208.103 41.683C209.591 41.683 210.916 41.8975 212.085 42.3782C213.254 42.859 214.261 43.5 215.057 44.4074C215.854 45.3147 216.437 46.3846 216.863 47.6667C217.287 48.9487 217.5 50.4452 217.5 52.0996V64.2271C218.137 64.3331 218.669 64.4416 219.039 64.4934C219.412 64.5476 219.676 64.6537 219.836 64.6537C219.995 64.6537 220.1 64.7079 220.154 64.7079C221.061 64.9176 221.484 65.4526 221.484 66.3599Z" fill="white"/>
<path d="M241.128 42.4793C242.561 43.0143 243.782 43.8674 244.845 44.9374C245.906 46.0049 246.702 47.287 247.288 48.8377C247.871 50.386 248.19 52.097 248.19 54.0742C248.19 54.555 248.136 55.0358 248.084 55.3563C248.03 55.6768 247.979 55.9431 247.871 56.1033C247.766 56.3178 247.607 56.4238 247.393 56.5299C247.18 56.6359 246.969 56.636 246.651 56.636H229.82C230.033 59.4663 230.775 61.4978 232.103 62.8317C233.431 64.1679 235.129 64.8089 237.305 64.8089C238.366 64.8089 239.27 64.7029 240.013 64.4342C240.809 64.1679 241.446 63.8993 242.03 63.5788C242.613 63.2582 243.145 63.0438 243.569 62.7775C243.992 62.5112 244.365 62.4028 244.789 62.4028C245.053 62.4028 245.32 62.457 245.531 62.563C245.744 62.6691 245.85 62.7775 246.009 62.9896L247.92 65.3934C247.178 66.2489 246.382 66.9959 245.477 67.5828C244.576 68.1696 243.62 68.6503 242.664 68.9709C241.655 69.2914 240.648 69.5058 239.638 69.6661C238.629 69.8263 237.622 69.8805 236.666 69.8805C234.755 69.8805 233.057 69.6142 231.41 68.9732C229.763 68.3322 228.384 67.3707 227.164 66.1428C225.943 64.915 224.988 63.3643 224.297 61.5473C223.606 59.7303 223.287 57.5951 223.287 55.1889C223.287 53.3201 223.606 51.6091 224.189 49.9524C224.772 48.2956 225.676 46.8533 226.791 45.6255C227.906 44.3977 229.286 43.4361 230.881 42.7409C232.473 42.0457 234.385 41.6733 236.404 41.6733C238.102 41.6781 239.694 41.9444 241.128 42.4793ZM232.049 48.0364C230.988 49.104 230.297 50.6547 229.979 52.6296H242.297C242.297 51.7741 242.137 50.9728 241.924 50.2258C241.711 49.4787 241.341 48.8377 240.863 48.2485C240.385 47.6617 239.802 47.2328 239.057 46.9123C238.315 46.5917 237.465 46.3773 236.509 46.3773C234.598 46.3796 233.11 46.9665 232.049 48.0364Z" fill="white"/>
<path d="M269.641 60.8027C269.641 62.1389 269.376 63.3667 268.898 64.4885C268.421 65.6103 267.73 66.5718 266.828 67.3731C265.926 68.1744 264.811 68.8154 263.429 69.242C262.101 69.7227 260.508 69.9372 258.756 69.9372C255.358 69.9372 252.067 69.1901 250.102 68.4407V65.7706V60.6943H250.367H251.004H253.18C253.871 60.6943 254.241 61.069 254.4 61.71C254.454 61.9763 254.559 62.7257 254.772 64.8609C256.206 65.2874 257.904 65.2874 259.073 65.2874C259.869 65.2874 260.56 65.1814 261.089 65.0211C261.673 64.8067 262.099 64.5946 262.469 64.2741C262.839 63.9536 263.106 63.6873 263.265 63.2583C263.425 62.8318 263.478 62.4029 263.478 61.9763C263.478 61.3353 263.319 60.8545 262.947 60.4279C262.574 60.0014 262.045 59.6809 261.408 59.3604C260.771 59.0399 260.08 58.7736 259.283 58.5591C258.487 58.2928 257.637 58.0241 256.789 57.7578C255.941 57.4915 255.142 57.1168 254.346 56.7421C253.55 56.3674 252.807 55.8866 252.17 55.2998C251.533 54.713 251.055 54.0178 250.683 53.1623C250.31 52.3068 250.1 51.2934 250.1 50.0632C250.1 48.9414 250.313 47.8739 250.737 46.8581C251.161 45.8424 251.852 44.9351 252.702 44.188C253.552 43.4409 254.667 42.7999 255.941 42.371C257.215 41.9421 258.649 41.6758 260.349 41.6758C263.003 41.6758 264.49 41.9421 268.313 43.1181H268.259V50.8645H268.046H267.409H265.233C264.542 50.8645 264.172 50.4898 264.012 49.8488C263.959 49.5825 263.853 48.9415 263.64 46.8581C262.949 46.6437 261.675 46.4834 260.455 46.4834C259.18 46.4834 258.171 46.7497 257.428 47.2847C256.686 47.8197 256.314 48.5667 256.314 49.4741C256.314 50.0609 256.527 50.5416 256.897 50.9706C257.269 51.3971 257.747 51.6658 258.384 51.9863C259.021 52.3068 259.712 52.6273 260.508 52.8418C261.305 53.0562 262.101 53.3225 262.951 53.5888C263.802 53.8551 264.65 54.2299 265.446 54.6046C266.242 54.9793 266.933 55.4058 267.57 55.9927C268.207 56.5276 268.685 57.1686 269.058 57.9699C269.43 58.7712 269.641 59.6809 269.641 60.8027Z" fill="white"/>
<path d="M291.142 42.694C292.789 43.335 294.222 44.2423 295.389 45.4725C296.557 46.7003 297.405 48.1426 298.042 49.9054C298.679 51.6682 298.998 53.5913 298.998 55.7288C298.998 57.9182 298.679 59.8412 298.042 61.604C297.405 63.3668 296.555 64.8633 295.389 66.0912C294.22 67.319 292.786 68.2805 291.142 68.9215C289.496 69.5626 287.638 69.8831 285.619 69.8831C283.6 69.8831 281.691 69.5626 280.045 68.9215C278.398 68.2805 276.965 67.319 275.798 66.0912C274.629 64.8633 273.674 63.3668 273.037 61.604C272.4 59.8412 272.081 57.9182 272.081 55.7288C272.081 53.5913 272.4 51.6682 273.037 49.9054C273.674 48.1426 274.629 46.7003 275.798 45.4725C276.967 44.2447 278.4 43.335 280.045 42.694C281.691 42.0529 283.603 41.6782 285.619 41.6782C287.636 41.6782 289.498 42.0529 291.142 42.694ZM290.613 62.5137C291.674 60.9654 292.259 58.7218 292.259 55.783C292.259 52.8442 291.676 50.6006 290.613 49.0523C289.552 47.504 287.905 46.7027 285.621 46.7027C283.338 46.7027 281.64 47.504 280.525 49.0523C279.41 50.6006 278.827 52.8984 278.827 55.8372C278.827 58.776 279.41 60.9654 280.525 62.5161C281.64 64.0644 283.338 64.8138 285.621 64.8138C287.905 64.8115 289.549 64.062 290.613 62.5137Z" fill="white"/>
</g>
<defs>
<clipPath id="clip0_103_526">
<rect width="299" height="111" fill="white"/>
</clipPath>
</defs>
</svg>
