<svg width="34" height="33" viewBox="0 0 34 33" fill="none" xmlns="http://www.w3.org/2000/svg">
<path d="M31.5791 23.7121V28.0777C31.5808 28.483 31.4959 28.8842 31.33 29.2555C31.164 29.6269 30.9207 29.9602 30.6154 30.2342C30.3102 30.5082 29.9499 30.7168 29.5575 30.8466C29.1651 30.9764 28.7494 31.0247 28.3368 30.9882C23.7602 30.5016 19.3641 28.9715 15.5016 26.5207C11.9081 24.2864 8.86147 21.3054 6.578 17.7893C4.06448 13.9929 2.50026 9.67061 2.01207 5.17253C1.97491 4.77011 2.02378 4.36453 2.15559 3.98161C2.2874 3.59869 2.49926 3.24682 2.77767 2.9484C3.05608 2.64998 3.39495 2.41155 3.77269 2.24829C4.15044 2.08503 4.55879 2.00052 4.97175 2.00014H9.43357C10.1554 1.99319 10.8551 2.24328 11.4024 2.70379C11.9496 3.1643 12.3071 3.80381 12.4081 4.50312C12.5964 5.90024 12.9457 7.27202 13.4492 8.5923C13.6493 9.11316 13.6926 9.67923 13.574 10.2234C13.4554 10.7676 13.1798 11.2672 12.7799 11.6628L10.8911 13.511C13.0083 17.1542 16.0913 20.1707 19.8147 22.2423L21.7036 20.3942C22.108 20.0029 22.6185 19.7333 23.1747 19.6172C23.7309 19.5011 24.3094 19.5435 24.8417 19.7393C26.1911 20.232 27.5931 20.5737 29.021 20.758C29.7434 20.8577 30.4032 21.2138 30.8749 21.7584C31.3466 22.3031 31.5972 22.9984 31.5791 23.7121Z" stroke="white" stroke-width="2.98" stroke-linecap="round" stroke-linejoin="round"/>
</svg>
