<svg width="48" height="48" viewBox="0 0 48 48" fill="none" xmlns="http://www.w3.org/2000/svg">
<rect width="47.0909" height="47.0909" rx="11.7727" fill="white"/>
<path fill-rule="evenodd" clip-rule="evenodd" d="M34.287 13.5243C32.9415 12.2176 31.3429 11.182 29.5833 10.4773C27.8238 9.77257 25.938 9.41257 24.0345 9.41803C16.0457 9.41803 9.54294 15.6986 9.54017 23.4188C9.53669 25.8772 10.2044 28.2926 11.4753 30.4192L9.41818 37.6725L17.102 35.7256C19.2289 36.8442 21.6099 37.4297 24.029 37.429H24.0345C32.0219 37.429 38.5247 31.1471 38.5289 23.4269C38.5336 21.5858 38.161 19.7621 37.4327 18.0621C36.7045 16.362 35.6352 14.8195 34.287 13.5243ZM24.0345 35.065H24.029C21.8727 35.0659 19.7555 34.5061 17.8977 33.4438L17.4583 33.1908L12.8976 34.3466L14.1161 30.0519L13.8291 29.6106C12.6233 27.7576 11.9844 25.6104 11.9869 23.4188C11.9869 17.0037 17.3931 11.7833 24.0387 11.7833C27.2267 11.7776 30.2865 13.0012 32.5451 15.185C34.8036 17.3688 36.076 20.334 36.0822 23.4282C36.0794 29.8447 30.6759 35.0664 24.0359 35.0664L24.0345 35.065ZM30.6427 26.3505C30.2809 26.1756 28.4982 25.328 28.1682 25.2109C27.8383 25.0952 27.5943 25.036 27.3531 25.3858C27.1119 25.737 26.4174 26.5228 26.2067 26.7582C25.9946 26.995 25.7839 27.0206 25.4221 26.8457C25.0603 26.6708 23.8917 26.3021 22.5083 25.11C21.4326 24.1817 20.7062 23.0367 20.4941 22.6869C20.2834 22.3371 20.4719 22.146 20.6535 21.9724C20.8157 21.815 21.0139 21.5634 21.1969 21.3589C21.3771 21.1544 21.4381 21.0091 21.5573 20.775C21.6779 20.5422 21.6183 20.3377 21.5296 20.1628C21.4381 19.9879 20.7131 18.2657 20.4123 17.5661C20.1171 16.8826 19.819 16.9754 19.5972 16.9647C19.3865 16.9552 19.1425 16.9512 18.9027 16.9512C18.7192 16.9559 18.5387 16.9972 18.3725 17.0727C18.2062 17.1481 18.0578 17.2561 17.9365 17.3898C17.6038 17.7396 16.6695 18.5873 16.6695 20.3095C16.6695 22.0289 17.9684 23.6946 18.1486 23.9287C18.3274 24.1615 20.702 27.6946 24.3353 29.2096C25.009 29.4908 25.6994 29.737 26.4008 29.9469C27.2672 30.2133 28.0573 30.1757 28.6811 30.0855C29.377 29.9846 30.8242 29.2379 31.1264 28.4212C31.4273 27.6045 31.4273 26.9049 31.3372 26.7582C31.247 26.6129 31.0045 26.5241 30.6427 26.3505Z" fill="#1A2E38"/>
</svg>
