<svg width="107" height="107" viewBox="0 0 107 107" fill="none" xmlns="http://www.w3.org/2000/svg">
<g filter="url(#filter0_d_103_581)">
<rect x="30" y="12" width="47.0909" height="47.0909" rx="11.7727" fill="white"/>
</g>
<path fill-rule="evenodd" clip-rule="evenodd" d="M64.2868 25.5243C62.9413 24.2176 61.3427 23.182 59.5831 22.4773C57.8236 21.7726 55.9378 21.4126 54.0343 21.418C46.0455 21.418 39.5427 27.6986 39.54 35.4188C39.5365 37.8772 40.2042 40.2926 41.4751 42.4192L39.418 49.6725L47.1018 47.7256C49.2287 48.8442 51.6097 49.4297 54.0288 49.429H54.0343C62.0217 49.429 68.5245 43.1471 68.5287 35.4269C68.5334 33.5858 68.1607 31.7621 67.4325 30.0621C66.7043 28.362 65.635 26.8195 64.2868 25.5243ZM54.0343 47.065H54.0288C51.8725 47.0659 49.7553 46.5061 47.8975 45.4438L47.4581 45.1908L42.8974 46.3466L44.1159 42.0519L43.8289 41.6106C42.6231 39.7576 41.9842 37.6104 41.9866 35.4188C41.9866 29.0037 47.3929 23.7833 54.0385 23.7833C57.2265 23.7776 60.2863 25.0012 62.5448 27.185C64.8034 29.3688 66.0757 32.334 66.082 35.4282C66.0792 41.8447 60.6757 47.0664 54.0357 47.0664L54.0343 47.065ZM60.6424 38.3505C60.2806 38.1756 58.498 37.328 58.168 37.2109C57.8381 37.0952 57.5941 37.036 57.3529 37.3858C57.1117 37.737 56.4172 38.5228 56.2065 38.7582C55.9944 38.995 55.7837 39.0206 55.4219 38.8457C55.0601 38.6708 53.8915 38.3021 52.5081 37.11C51.4324 36.1817 50.706 35.0367 50.4939 34.6869C50.2832 34.3371 50.4717 34.146 50.6533 33.9724C50.8155 33.815 51.0137 33.5634 51.1967 33.3589C51.3769 33.1544 51.4379 33.0091 51.5571 32.775C51.6777 32.5422 51.6181 32.3377 51.5294 32.1628C51.4379 31.9879 50.7129 30.2657 50.4121 29.5661C50.1168 28.8826 49.8188 28.9754 49.597 28.9647C49.3863 28.9552 49.1423 28.9512 48.9025 28.9512C48.719 28.9559 48.5385 28.9972 48.3723 29.0727C48.206 29.1481 48.0576 29.2561 47.9363 29.3898C47.6036 29.7396 46.6693 30.5873 46.6693 32.3095C46.6693 34.0289 47.9682 35.6946 48.1484 35.9287C48.3272 36.1615 50.7018 39.6946 54.3351 41.2096C55.0088 41.4908 55.6992 41.737 56.4006 41.9469C57.267 42.2133 58.0571 42.1757 58.6809 42.0855C59.3768 41.9846 60.824 41.2379 61.1262 40.4212C61.427 39.6045 61.427 38.9049 61.3369 38.7582C61.2468 38.6129 61.0042 38.5241 60.6424 38.3505Z" fill="#1A2E38"/>
<defs>
<filter id="filter0_d_103_581" x="0.568184" y="0.227274" width="105.954" height="105.954" filterUnits="userSpaceOnUse" color-interpolation-filters="sRGB">
<feFlood flood-opacity="0" result="BackgroundImageFix"/>
<feColorMatrix in="SourceAlpha" type="matrix" values="0 0 0 0 0 0 0 0 0 0 0 0 0 0 0 0 0 0 127 0" result="hardAlpha"/>
<feOffset dy="17.6591"/>
<feGaussianBlur stdDeviation="14.7159"/>
<feComposite in2="hardAlpha" operator="out"/>
<feColorMatrix type="matrix" values="0 0 0 0 0.145098 0 0 0 0 0.145098 0 0 0 0 0.145098 0 0 0 0.25 0"/>
<feBlend mode="normal" in2="BackgroundImageFix" result="effect1_dropShadow_103_581"/>
<feBlend mode="normal" in="SourceGraphic" in2="effect1_dropShadow_103_581" result="shape"/>
</filter>
</defs>
</svg>
