<svg width="48" height="48" viewBox="0 0 48 48" fill="none" xmlns="http://www.w3.org/2000/svg">
<rect x="0.909088" width="47.0909" height="47.0909" rx="11.7727" fill="white"/>
<path d="M40.9412 16.6145C40.9412 13.704 38.837 11.3632 36.238 11.3632C32.6465 11.2006 29.0518 11.1234 25.4568 11.1314H24.3125C20.6519 11.1314 17.0551 11.1963 13.5341 11.3645C10.9419 11.3645 8.83769 13.7178 8.83769 16.6269C8.68232 18.9252 8.60816 21.2285 8.61534 23.5322C8.60939 25.8381 8.68175 28.1435 8.83227 30.4443C8.83227 33.3548 10.9351 35.7136 13.5287 35.7136C17.2273 35.8888 21.0207 35.966 24.8793 35.9591C28.7432 35.9729 32.5259 35.8902 36.2285 35.7136C38.8289 35.7136 40.933 33.3548 40.933 30.4443C41.0835 28.1412 41.1554 25.8335 41.1486 23.5253C41.1627 21.2199 41.0935 18.9147 40.9412 16.6145ZM21.7705 29.876V17.1704L30.9857 23.5184L21.7705 29.8746V29.876Z" fill="#1A2E38"/>
</svg>
