<svg width="253" height="99" viewBox="0 0 253 99" fill="none" xmlns="http://www.w3.org/2000/svg">
<g filter="url(#filter0_d_98_273)">
<path d="M42.5667 37.8645V28.3723C42.5667 26.5658 41.112 25.0994 39.3156 25.0994H36.1872V37.8645C36.1872 38.0191 36.0625 38.1447 35.909 38.1447H29.2205C25.9117 38.1447 23.2287 40.8457 23.2287 44.1765V44.5668H35.909C36.0625 44.5668 36.1872 44.6924 36.1872 44.847V54.3392C36.1872 56.1456 37.642 57.6121 39.4384 57.6121H42.5667V44.847C42.5667 44.6924 42.6915 44.5668 42.845 44.5668H49.1458C52.6695 44.5668 55.5253 41.6919 55.5253 38.1447H42.845C42.6915 38.1447 42.5667 38.0191 42.5667 37.8645Z" fill="#42C059"/>
<path d="M39.377 91C38.4673 91 37.5556 90.7372 36.763 90.2136L6.14761 69.9715C4.80799 69.0846 4 67.5796 4 65.9644V4.79344C4 2.14652 6.13225 0 8.76159 0H69.9924C72.6217 0 74.754 2.14652 74.754 4.79344V16.9403C74.754 21.0401 71.4529 24.3652 67.3784 24.3652H66.1079C65.6223 24.3652 65.2289 23.9691 65.2289 23.4803V9.58688H13.5232V63.3773L39.3885 80.478L65.2308 63.5435V57.4131C65.2308 53.3132 68.5319 49.9882 72.6064 49.9882H73.8769C74.3624 49.9882 74.7559 50.3842 74.7559 50.8731V66.1441C74.7559 67.7651 73.9421 69.2779 72.5929 70.1608L41.9756 90.2233C41.1849 90.7411 40.2809 91 39.377 91Z" fill="#42C059"/>
<path d="M104.018 65.9122C103.965 64.9075 103.901 63.7019 103.913 62.8035H103.88C103.636 63.6478 103.339 64.5443 102.978 65.5374L101.715 69.0306H101.015L99.8574 65.6012C99.5177 64.5868 99.2317 63.6575 99.0302 62.8035H99.0091C98.988 63.7 98.9342 64.9075 98.8709 65.9856L98.679 69.0731H97.7981L98.2971 61.8742H99.4755L100.696 65.3558C100.994 66.2426 101.237 67.0328 101.418 67.7805H101.45C101.631 67.0541 101.886 66.2638 102.203 65.3558L103.475 61.8742H104.654L105.099 69.0731H104.197L104.018 65.9122Z" fill="#42C059"/>
<path d="M107.074 66.6599C107.095 67.9312 107.901 68.4548 108.836 68.4548C109.503 68.4548 109.906 68.3369 110.258 68.1882L110.417 68.8605C110.089 69.0093 109.526 69.1813 108.709 69.1813C107.127 69.1813 106.183 68.1341 106.183 66.5749C106.183 65.0157 107.095 63.7869 108.592 63.7869C110.267 63.7869 110.714 65.2708 110.714 66.2213C110.714 66.4145 110.693 66.5633 110.682 66.6599H107.074ZM109.812 65.9876C109.824 65.3886 109.569 64.4593 108.519 64.4593C107.575 64.4593 107.16 65.3345 107.087 65.9876H109.812Z" fill="#42C059"/>
<path d="M116.305 61.4897V67.738C116.305 68.1978 116.317 68.7214 116.347 69.0731H115.509L115.466 68.1766H115.445C115.159 68.7543 114.534 69.1909 113.695 69.1909C112.453 69.1909 111.499 68.1341 111.499 66.5633C111.488 64.8438 112.549 63.7869 113.802 63.7869C114.587 63.7869 115.117 64.1618 115.351 64.5772H115.372V61.4897H116.305ZM115.37 66.0088C115.37 65.891 115.359 65.7306 115.328 65.6147C115.19 65.0157 114.681 64.525 113.981 64.525C113.016 64.525 112.442 65.379 112.442 66.5227C112.442 67.5699 112.95 68.4355 113.96 68.4355C114.585 68.4355 115.159 68.0182 115.328 67.3149C115.361 67.1874 115.37 67.0579 115.37 66.9092V66.0088Z" fill="#42C059"/>
<path d="M118.894 62.4519C118.906 62.7726 118.672 63.0296 118.299 63.0296C117.971 63.0296 117.737 62.7726 117.737 62.4519C117.737 62.1215 117.981 61.8645 118.32 61.8645C118.672 61.8645 118.894 62.1196 118.894 62.4519ZM117.854 69.0731V63.9029H118.787V69.0731H117.854Z" fill="#42C059"/>
<path d="M123.997 68.8818C123.754 69.0093 123.212 69.1813 122.523 69.1813C120.975 69.1813 119.967 68.1244 119.967 66.544C119.967 64.952 121.049 63.7985 122.725 63.7985C123.278 63.7985 123.765 63.9376 124.018 64.0652L123.805 64.7916C123.583 64.6641 123.233 64.5462 122.723 64.5462C121.545 64.5462 120.909 65.4215 120.909 66.5015C120.909 67.6974 121.673 68.4355 122.692 68.4355C123.222 68.4355 123.573 68.2964 123.838 68.1785L123.997 68.8818Z" fill="#42C059"/>
<path d="M126.13 62.4519C126.141 62.7726 125.907 63.0296 125.535 63.0296C125.206 63.0296 124.972 62.7726 124.972 62.4519C124.972 62.1215 125.216 61.8645 125.556 61.8645C125.907 61.8645 126.13 62.1196 126.13 62.4519ZM125.089 69.0731V63.9029H126.022V69.0731H125.089Z" fill="#42C059"/>
<path d="M127.573 65.3036C127.573 64.7704 127.563 64.3318 127.531 63.9048H128.358L128.412 64.7588H128.433C128.688 64.268 129.281 63.7869 130.129 63.7869C130.839 63.7869 131.943 64.2139 131.943 65.9876V69.075H131.01V66.0958C131.01 65.263 130.703 64.5675 129.822 64.5675C129.206 64.5675 128.73 65.0061 128.571 65.5297C128.529 65.6475 128.508 65.8079 128.508 65.9682V69.0769H127.573V65.3036Z" fill="#42C059"/>
<path d="M136.303 69.0731L136.229 68.422H136.196C135.91 68.8277 135.357 69.1909 134.626 69.1909C133.586 69.1909 133.056 68.4548 133.056 67.7071C133.056 66.457 134.16 65.7731 136.144 65.7847V65.6784C136.144 65.2514 136.027 64.4825 134.977 64.4825C134.499 64.4825 134 64.6313 133.639 64.867L133.426 64.2468C133.851 63.9686 134.467 63.7869 135.113 63.7869C136.683 63.7869 137.065 64.865 137.065 65.9025V67.8365C137.065 68.2848 137.086 68.7234 137.15 69.075H136.303V69.0731ZM136.165 66.4358C135.146 66.4145 133.991 66.5962 133.991 67.6008C133.991 68.2094 134.394 68.4973 134.872 68.4973C135.54 68.4973 135.964 68.0703 136.113 67.6317C136.146 67.5351 136.167 67.4289 136.167 67.3323V66.4358H136.165Z" fill="#42C059"/>
<path d="M141.343 66.6599C141.364 67.9312 142.17 68.4548 143.105 68.4548C143.773 68.4548 144.176 68.3369 144.527 68.1882L144.687 68.8605C144.358 69.0093 143.796 69.1813 142.978 69.1813C141.397 69.1813 140.453 68.1341 140.453 66.5749C140.453 65.0157 141.364 63.7869 142.861 63.7869C144.539 63.7869 144.984 65.2708 144.984 66.2213C144.984 66.4145 144.963 66.5633 144.951 66.6599H141.343ZM144.08 65.9876C144.092 65.3886 143.836 64.4593 142.787 64.4593C141.842 64.4593 141.428 65.3345 141.355 65.9876H144.08Z" fill="#42C059"/>
<path d="M148.293 67.9409C148.707 68.1978 149.312 68.4104 149.947 68.4104C150.891 68.4104 151.442 67.908 151.442 67.1816C151.442 66.5092 151.06 66.1247 150.095 65.7499C148.928 65.3326 148.206 64.724 148.206 63.7097C148.206 62.5891 149.13 61.7544 150.519 61.7544C151.25 61.7544 151.782 61.9244 152.1 62.1061L151.845 62.8634C151.611 62.7359 151.135 62.5215 150.486 62.5215C149.51 62.5215 149.139 63.1088 149.139 63.5995C149.139 64.2719 149.575 64.6042 150.561 64.9887C151.77 65.4582 152.386 66.0455 152.386 67.1043C152.386 68.2152 151.569 69.1755 149.882 69.1755C149.193 69.1755 148.439 68.9726 148.057 68.7156L148.293 67.9409Z" fill="#42C059"/>
<path d="M154.202 66.6599C154.223 67.9312 155.029 68.4548 155.964 68.4548C156.632 68.4548 157.035 68.3369 157.386 68.1882L157.545 68.8605C157.217 69.0093 156.655 69.1813 155.837 69.1813C154.256 69.1813 153.312 68.1341 153.312 66.5749C153.312 65.0157 154.223 63.7869 155.72 63.7869C157.398 63.7869 157.843 65.2708 157.843 66.2213C157.843 66.4145 157.822 66.5633 157.81 66.6599H154.202ZM156.939 65.9876C156.95 65.3886 156.695 64.4593 155.645 64.4593C154.701 64.4593 154.286 65.3345 154.214 65.9876H156.939Z" fill="#42C059"/>
<path d="M163.422 63.9048C163.401 64.2777 163.38 64.695 163.38 65.3249V68.3254C163.38 69.5116 163.146 70.2381 162.649 70.6863C162.15 71.1558 161.428 71.3065 160.781 71.3065C160.165 71.3065 159.488 71.1577 159.073 70.8795L159.307 70.1647C159.647 70.3791 160.177 70.5704 160.814 70.5704C161.77 70.5704 162.468 70.0681 162.468 68.7659V68.1882H162.447C162.161 68.6693 161.608 69.0537 160.814 69.0537C159.541 69.0537 158.628 67.9641 158.628 66.5324C158.628 64.78 159.764 63.7869 160.94 63.7869C161.831 63.7869 162.32 64.2564 162.543 64.6834H162.564L162.606 63.9029H163.422V63.9048ZM162.457 65.9431C162.457 65.7828 162.447 65.6437 162.403 65.5161C162.234 64.9713 161.777 64.5231 161.098 64.5231C160.207 64.5231 159.57 65.2824 159.57 66.4783C159.57 67.4926 160.079 68.3369 161.088 68.3369C161.662 68.3369 162.18 67.9737 162.382 67.3748C162.435 67.2144 162.457 67.0328 162.457 66.8724V65.9431Z" fill="#42C059"/>
<path d="M169.226 67.6646C169.226 68.1978 169.237 68.6693 169.268 69.075H168.441L168.387 68.2307H168.366C168.122 68.648 167.581 69.1928 166.667 69.1928C165.861 69.1928 164.896 68.7446 164.896 66.9285V63.9048H165.831V66.7681C165.831 67.7515 166.128 68.4123 166.976 68.4123C167.602 68.4123 168.038 67.9737 168.207 67.5583C168.26 67.4192 168.291 67.2492 168.291 67.0772V63.9048H169.226V67.6646Z" fill="#42C059"/>
<path d="M170.774 65.5161C170.774 64.9075 170.765 64.384 170.732 63.9029H171.55L171.582 64.9172H171.625C171.859 64.2236 172.421 63.785 173.047 63.785C173.152 63.785 173.227 63.7966 173.312 63.8179V64.7047C173.216 64.6834 173.12 64.6718 172.993 64.6718C172.335 64.6718 171.868 65.1742 171.742 65.8794C171.721 66.0069 171.7 66.1576 171.7 66.3179V69.0731H170.776V65.5161H170.774Z" fill="#42C059"/>
<path d="M177.035 69.0731L176.96 68.422H176.928C176.642 68.8277 176.089 69.1909 175.358 69.1909C174.317 69.1909 173.788 68.4548 173.788 67.7071C173.788 66.457 174.891 65.7731 176.876 65.7847V65.6784C176.876 65.2514 176.759 64.4825 175.709 64.4825C175.231 64.4825 174.732 64.6313 174.371 64.867L174.158 64.2468C174.582 63.9686 175.198 63.7869 175.845 63.7869C177.415 63.7869 177.797 64.865 177.797 65.9025V67.8365C177.797 68.2848 177.818 68.7234 177.881 69.075H177.035V69.0731ZM176.897 66.4358C175.878 66.4145 174.722 66.5962 174.722 67.6008C174.722 68.2094 175.125 68.4973 175.603 68.4973C176.271 68.4973 176.695 68.0703 176.845 67.6317C176.878 67.5351 176.899 67.4289 176.899 67.3323V66.4358H176.897Z" fill="#42C059"/>
<path d="M179.305 65.3036C179.305 64.7704 179.294 64.3318 179.263 63.9048H180.09L180.144 64.7588H180.165C180.421 64.268 181.014 63.7869 181.864 63.7869C182.574 63.7869 183.677 64.2139 183.677 65.9876V69.075H182.743V66.0958C182.743 65.263 182.436 64.5675 181.555 64.5675C180.939 64.5675 180.463 65.0061 180.303 65.5297C180.261 65.6475 180.24 65.8079 180.24 65.9682V69.0769H179.307V65.3036H179.305Z" fill="#42C059"/>
<path d="M188.854 68.8818C188.631 68.9996 188.143 69.16 187.527 69.1813L187.251 69.6082C187.644 69.6623 187.994 69.9386 187.994 70.3463C187.994 70.9761 187.474 71.2118 186.89 71.2118C186.625 71.2118 186.349 71.1365 186.169 71.0302L186.328 70.5704C186.497 70.6767 186.71 70.7308 186.902 70.7308C187.136 70.7308 187.358 70.6458 187.358 70.3888C187.347 70.1106 187.03 69.9831 186.531 69.9406L186.977 69.16C185.66 68.99 184.823 67.9853 184.823 66.544C184.823 64.952 185.906 63.7985 187.581 63.7985C188.134 63.7985 188.621 63.9376 188.877 64.0652L188.664 64.7916C188.441 64.6641 188.09 64.5462 187.581 64.5462C186.403 64.5462 185.767 65.4215 185.767 66.5015C185.767 67.6974 186.531 68.4355 187.55 68.4355C188.08 68.4355 188.431 68.2964 188.696 68.1785L188.854 68.8818Z" fill="#42C059"/>
<path d="M192.79 69.0731L192.715 68.422H192.682C192.396 68.8277 191.844 69.1909 191.112 69.1909C190.072 69.1909 189.543 68.4548 189.543 67.7071C189.543 66.457 190.646 65.7731 192.631 65.7847V65.6784C192.631 65.2514 192.513 64.4825 191.464 64.4825C190.986 64.4825 190.487 64.6313 190.126 64.867L189.913 64.2468C190.337 63.9686 190.953 63.7869 191.6 63.7869C193.17 63.7869 193.552 64.865 193.552 65.9025V67.8365C193.552 68.2848 193.573 68.7234 193.636 69.075H192.79V69.0731ZM192.652 66.4358C191.633 66.4145 190.477 66.5962 190.477 67.6008C190.477 68.2094 190.88 68.4973 191.358 68.4973C192.026 68.4973 192.45 68.0703 192.6 67.6317C192.632 67.5351 192.654 67.4289 192.654 67.3323V66.4358H192.652Z" fill="#42C059"/>
<path d="M201.745 61.4897V67.738C201.745 68.1978 201.756 68.7214 201.787 69.0731H200.948L200.906 68.1766H200.885C200.599 68.7543 199.973 69.1909 199.135 69.1909C197.893 69.1909 196.939 68.1341 196.939 66.5633C196.928 64.8438 197.989 63.7869 199.242 63.7869C200.027 63.7869 200.559 64.1618 200.791 64.5772H200.812V61.4897H201.745ZM200.81 66.0088C200.81 65.891 200.801 65.7306 200.768 65.6147C200.63 65.0157 200.121 64.525 199.421 64.525C198.455 64.525 197.882 65.379 197.882 66.5227C197.882 67.5699 198.39 68.4355 199.4 68.4355C200.025 68.4355 200.599 68.0182 200.768 67.3149C200.801 67.1874 200.81 67.0579 200.81 66.9092V66.0088Z" fill="#42C059"/>
<path d="M207.94 66.4455C207.94 68.3582 206.626 69.1909 205.384 69.1909C203.994 69.1909 202.921 68.165 202.921 66.5305C202.921 64.7993 204.046 63.785 205.468 63.785C206.942 63.787 207.94 64.865 207.94 66.4455ZM203.866 66.4996C203.866 67.6317 204.512 68.4857 205.426 68.4857C206.317 68.4857 206.986 67.6414 206.986 66.4783C206.986 65.6031 206.551 64.4921 205.447 64.4921C204.344 64.4921 203.866 65.5161 203.866 66.4996Z" fill="#42C059"/>
<path d="M212.322 62.6644H210.147V61.8742H215.442V62.6644H213.256V69.0731H212.322V62.6644Z" fill="#42C059"/>
<path d="M215.728 65.5161C215.728 64.9075 215.719 64.384 215.686 63.9029H216.504L216.536 64.9172H216.579C216.813 64.2236 217.375 63.785 218.001 63.785C218.106 63.785 218.181 63.7966 218.266 63.8179V64.7047C218.17 64.6834 218.074 64.6718 217.947 64.6718C217.289 64.6718 216.822 65.1742 216.696 65.8794C216.675 66.0069 216.653 66.1576 216.653 66.3179V69.0731H215.73V65.5161H215.728Z" fill="#42C059"/>
<path d="M221.987 69.0731L221.912 68.422H221.879C221.594 68.8277 221.041 69.1909 220.31 69.1909C219.269 69.1909 218.74 68.4548 218.74 67.7071C218.74 66.457 219.843 65.7731 221.828 65.7847V65.6784C221.828 65.2514 221.711 64.4825 220.661 64.4825C220.183 64.4825 219.684 64.6313 219.323 64.867L219.11 64.2468C219.534 63.9686 220.15 63.7869 220.797 63.7869C222.367 63.7869 222.749 64.865 222.749 65.9025V67.8365C222.749 68.2848 222.77 68.7234 222.833 69.075H221.987V69.0731ZM221.851 66.4358C220.832 66.4145 219.676 66.5962 219.676 67.6008C219.676 68.2094 220.079 68.4973 220.557 68.4973C221.225 68.4973 221.649 68.0703 221.799 67.6317C221.832 67.5351 221.853 67.4289 221.853 67.3323V66.4358H221.851Z" fill="#42C059"/>
<path d="M224.215 69.0731C224.236 68.7214 224.257 68.1978 224.257 67.738V61.4897H225.181V64.7375H225.202C225.53 64.1598 226.125 63.7869 226.952 63.7869C228.224 63.7869 229.126 64.8554 229.117 66.4261C229.117 68.2732 227.96 69.1929 226.814 69.1929C226.071 69.1929 225.476 68.905 225.094 68.221H225.062L225.019 69.075H224.215V69.0731ZM225.181 67.0019C225.181 67.1198 225.202 67.2376 225.223 67.3439C225.403 67.995 225.944 68.4432 226.624 68.4432C227.601 68.4432 228.184 67.6414 228.184 66.4571C228.184 65.4215 227.654 64.5347 226.656 64.5347C226.019 64.5347 225.426 64.9732 225.234 65.6881C225.213 65.7944 225.181 65.9238 225.181 66.0726V67.0019Z" fill="#42C059"/>
<path d="M233.138 69.0731L233.063 68.422H233.03C232.744 68.8277 232.191 69.1909 231.46 69.1909C230.42 69.1909 229.89 68.4548 229.89 67.7071C229.89 66.457 230.994 65.7731 232.978 65.7847V65.6784C232.978 65.2514 232.861 64.4825 231.811 64.4825C231.334 64.4825 230.835 64.6313 230.476 64.867L230.263 64.2468C230.687 63.9686 231.303 63.7869 231.95 63.7869C233.52 63.7869 233.901 64.865 233.901 65.9025V67.8365C233.901 68.2848 233.923 68.7234 233.986 69.075H233.138V69.0731ZM233.001 66.4358C231.982 66.4145 230.827 66.5962 230.827 67.6008C230.827 68.2094 231.23 68.4973 231.708 68.4973C232.376 68.4973 232.8 68.0703 232.95 67.6317C232.982 67.5351 233.003 67.4289 233.003 67.3323V66.4358H233.001Z" fill="#42C059"/>
<path d="M235.408 61.4897H236.343V69.0731H235.408V61.4897Z" fill="#42C059"/>
<path d="M237.913 61.4897H238.847V64.7163H238.868C239.016 64.4496 239.25 64.2139 239.536 64.0536C239.813 63.8932 240.141 63.7869 240.492 63.7869C241.181 63.7869 242.285 64.2139 242.285 65.9972V69.0731H241.352V66.1035C241.352 65.2708 241.045 64.5656 240.164 64.5656C239.559 64.5656 239.081 64.9926 238.913 65.5046C238.859 65.6321 238.849 65.7712 238.849 65.9528V69.0711H237.915V61.4897H237.913Z" fill="#42C059"/>
<path d="M248.449 66.4455C248.449 68.3582 247.133 69.1909 245.893 69.1909C244.503 69.1909 243.43 68.165 243.43 66.5305C243.43 64.7993 244.555 63.785 245.977 63.785C247.451 63.787 248.449 64.865 248.449 66.4455ZM244.375 66.4996C244.375 67.6317 245.021 68.4857 245.935 68.4857C246.826 68.4857 247.495 67.6414 247.495 66.4783C247.495 65.6031 247.06 64.4921 245.956 64.4921C244.851 64.4921 244.375 65.5161 244.375 66.4996Z" fill="#42C059"/>
<path d="M119.443 34.5201C119.357 34.126 119.226 32.9435 119.052 31.0173C116.658 30.3159 114.701 30.0107 113.048 30.0107C111.568 30.0107 110.221 30.229 108.958 30.7545C107.697 31.28 106.653 32.0239 105.782 32.988C104.911 33.9521 104.216 35.0901 103.694 36.4908C103.172 37.8916 102.911 39.4681 102.911 41.178C102.911 42.9729 103.172 44.5069 103.694 45.9077C104.216 47.3084 104.824 48.4483 105.696 49.4105C106.565 50.3746 107.567 51.074 108.741 51.5995C109.916 52.125 111.135 52.3434 112.484 52.3434C113.267 52.3434 114.006 52.2989 114.658 52.212C115.311 52.125 115.919 51.9937 116.441 51.8178C116.963 51.642 117.485 51.3793 117.963 51.074C118.441 50.7668 118.921 50.3727 119.399 49.936C119.529 49.8046 119.704 49.7177 119.877 49.6288C120.05 49.5399 120.224 49.5419 120.399 49.5419C120.704 49.5419 121.007 49.6288 121.226 49.8916L123.531 52.4322C122.27 54.0088 120.704 55.2357 118.833 56.0664C116.961 56.8992 114.701 57.3358 112.089 57.3358C109.739 57.3358 107.694 56.8972 105.824 56.1089C103.953 55.3207 102.345 54.2252 101.038 52.78C99.7307 51.3348 98.6886 49.6269 97.9919 47.6562C97.2952 45.6855 96.9478 43.539 96.9478 41.1741C96.9478 38.8093 97.3394 36.5758 98.1224 34.6051C98.9055 32.6344 99.9936 30.9709 101.429 29.5238C102.865 28.0786 104.517 26.9406 106.519 26.1524C108.477 25.3641 110.695 24.9699 113.088 24.9699C115.699 24.9699 119.005 25.7138 122.965 27.2478V35.3065H120.441C119.879 35.3084 119.574 35.0456 119.443 34.5201Z" fill="#1A2E38"/>
<path d="M145.938 54.3585V56.9417H143.197H142.631H140.804C140.282 56.9417 139.89 56.8972 139.585 56.7233C139.28 56.592 139.063 56.2423 138.933 55.7592L138.455 54.1827C137.889 54.7082 137.367 55.1468 136.802 55.5409C136.28 55.9351 135.672 56.2422 135.106 56.505C134.54 56.7678 133.931 56.9436 133.279 57.075C132.626 57.2063 131.887 57.2933 131.104 57.2933C130.147 57.2933 129.277 57.1619 128.494 56.8991C127.711 56.6364 127.014 56.2867 126.45 55.7612C125.884 55.2356 125.406 54.5787 125.101 53.8349C124.796 53.0911 124.623 52.2139 124.623 51.2073C124.623 50.3746 124.84 49.4994 125.276 48.6666C125.711 47.8339 126.45 47.0901 127.494 46.4332C128.538 45.7763 129.887 45.2063 131.584 44.7697C133.281 44.3311 135.455 44.1128 137.979 44.1128V42.799C137.979 41.2669 137.631 40.1714 137.021 39.4275C136.413 38.6837 135.499 38.3321 134.281 38.3321C133.411 38.3321 132.67 38.419 132.106 38.6393C131.54 38.8576 131.018 39.0778 130.584 39.3406C130.148 39.6034 129.757 39.7792 129.41 39.9975C129.062 40.2158 128.671 40.3047 128.235 40.3047C127.888 40.3047 127.538 40.2177 127.277 40.0419C127.016 39.8661 126.842 39.6034 126.669 39.3406L125.669 37.6327C128.235 35.2678 131.325 34.041 134.935 34.041C136.24 34.041 137.415 34.2593 138.459 34.6979C139.459 35.1364 140.33 35.7489 141.025 36.4927C141.721 37.281 142.33 38.2007 142.677 39.2517C143.025 40.3028 143.199 41.4852 143.199 42.7545V52.6969C143.677 52.7839 144.113 52.8727 144.374 52.9152C144.635 52.9597 144.809 53.0022 144.852 53.0022C145.591 53.1761 145.938 53.6146 145.938 54.3585ZM137.977 47.3953C136.411 47.3953 135.106 47.4823 134.062 47.7025C133.018 47.9228 132.148 48.1836 131.496 48.4908C130.843 48.798 130.408 49.1477 130.147 49.5419C129.886 49.936 129.755 50.4171 129.755 50.9001C129.755 51.8642 130.016 52.5636 130.582 52.9577C131.148 53.3519 131.843 53.5702 132.757 53.5702C133.323 53.5702 133.801 53.5258 134.279 53.4388C134.756 53.3519 135.236 53.1761 135.628 52.9577C136.019 52.7394 136.411 52.5192 136.802 52.2139C137.194 51.9086 137.585 51.557 137.977 51.1629V47.3953Z" fill="#1A2E38"/>
<path d="M185.483 54.4029V56.9861H182.221H176.826V42.7082C176.826 41.263 176.521 40.1675 175.912 39.4681C175.304 38.7243 174.39 38.3726 173.172 38.3726C172.605 38.3726 172.083 38.504 171.606 38.6798C171.128 38.8556 170.736 39.1184 170.387 39.4681C170.038 39.8178 169.778 40.3008 169.56 40.8263C169.343 41.3519 169.254 42.0088 169.254 42.7101V52.6525C169.821 52.7394 170.212 52.8283 170.515 52.8708C170.821 52.9152 171.037 52.9577 171.168 53.0022C171.298 53.0466 171.385 53.0466 171.429 53.0466C172.168 53.2224 172.517 53.6591 172.517 54.4049V56.988H169.254H163.86V42.7101C163.86 41.2205 163.554 40.1269 162.946 39.4256C162.338 38.7243 161.466 38.3746 160.292 38.3746C159.509 38.3746 158.812 38.5504 158.117 38.9445C157.422 39.3387 156.812 39.9086 156.246 40.5655V52.6544C156.768 52.7414 157.204 52.8302 157.507 52.8727C157.81 52.9152 158.029 52.9597 158.159 53.0041C158.29 53.0486 158.376 53.0486 158.42 53.0486C159.159 53.2244 159.509 53.661 159.509 54.4068V56.99H156.246H150.851H147.588V54.4068C147.588 53.663 147.936 53.2244 148.677 53.0486C148.721 53.0486 148.807 53.0041 148.938 53.0041C149.068 53.0041 149.285 52.9172 149.59 52.8727C149.895 52.8283 150.329 52.7414 150.851 52.6544V38.8576C150.329 38.7706 149.893 38.6818 149.59 38.6393C149.285 38.5948 149.068 38.5079 148.938 38.5079C148.807 38.5079 148.721 38.4634 148.677 38.4634C147.938 38.2876 147.546 37.851 147.546 37.1052V34.522H150.853H154.16C154.856 34.522 155.29 34.8717 155.509 35.5286L155.856 37.1921C156.248 36.7536 156.639 36.3169 157.075 35.9653C157.511 35.6156 157.989 35.3084 158.467 35.0456C158.944 34.7829 159.466 34.5645 160.033 34.3887C160.599 34.2129 161.207 34.1704 161.86 34.1704C163.251 34.1704 164.426 34.5201 165.339 35.3084C166.253 36.0967 166.949 37.1033 167.383 38.3746C167.731 37.6307 168.166 36.9738 168.688 36.4483C169.21 35.9228 169.776 35.5286 170.385 35.1789C170.993 34.8292 171.69 34.609 172.387 34.4351C173.083 34.2612 173.822 34.1723 174.519 34.1723C175.738 34.1723 176.824 34.3482 177.782 34.7423C178.739 35.1364 179.565 35.662 180.217 36.4058C180.87 37.1496 181.347 38.0268 181.697 39.0778C182.044 40.1289 182.219 41.3557 182.219 42.712V52.6544C182.741 52.7414 183.176 52.8302 183.48 52.8727C183.785 52.9172 184.002 53.0041 184.132 53.0041C184.263 53.0041 184.349 53.0486 184.393 53.0486C185.136 53.2205 185.483 53.6591 185.483 54.4029Z" fill="#1A2E38"/>
<path d="M201.58 34.8254C202.754 35.264 203.754 35.9634 204.626 36.8405C205.495 37.7157 206.148 38.7668 206.627 40.0381C207.105 41.3074 207.366 42.7101 207.366 44.3311C207.366 44.7252 207.322 45.1194 207.28 45.3821C207.236 45.6449 207.194 45.8632 207.105 45.9946C207.019 46.1704 206.888 46.2574 206.714 46.3443C206.539 46.4313 206.366 46.4313 206.105 46.4313H192.314C192.489 48.7517 193.097 50.4171 194.185 51.5106C195.273 52.6061 196.665 53.1316 198.448 53.1316C199.317 53.1316 200.058 53.0447 200.666 52.8244C201.319 52.6061 201.841 52.3859 202.319 52.1231C202.797 51.8603 203.232 51.6845 203.58 51.4662C203.927 51.2479 204.232 51.159 204.58 51.159C204.796 51.159 205.015 51.2034 205.188 51.2904C205.363 51.3773 205.449 51.4662 205.58 51.6401L207.146 53.6108C206.537 54.3121 205.885 54.9246 205.144 55.4057C204.405 55.8868 203.622 56.2809 202.839 56.5437C202.012 56.8064 201.186 56.9822 200.359 57.1136C199.532 57.245 198.707 57.2894 197.924 57.2894C196.358 57.2894 194.966 57.0711 193.617 56.5456C192.268 56.0201 191.137 55.2318 190.137 54.2252C189.138 53.2186 188.355 51.9473 187.788 50.4577C187.222 48.9681 186.961 47.2176 186.961 45.245C186.961 43.7128 187.222 42.3102 187.7 40.9519C188.178 39.5937 188.919 38.4113 189.832 37.4047C190.746 36.3981 191.876 35.6098 193.183 35.0398C194.488 34.4699 196.054 34.1646 197.709 34.1646C199.1 34.1685 200.405 34.3868 201.58 34.8254ZM194.141 39.3812C193.272 40.2564 192.705 41.5277 192.444 43.1468H202.538C202.538 42.4454 202.407 41.7885 202.232 41.1761C202.058 40.5636 201.755 40.0381 201.363 39.5551C200.971 39.074 200.494 38.7223 199.883 38.4596C199.275 38.1968 198.578 38.021 197.795 38.021C196.229 38.0229 195.01 38.504 194.141 39.3812Z" fill="#1A2E38"/>
<path d="M224.943 49.8471C224.943 50.9426 224.726 51.9492 224.334 52.8689C223.943 53.7885 223.376 54.5768 222.638 55.2337C221.899 55.8906 220.985 56.4161 219.853 56.7658C218.765 57.16 217.46 57.3358 216.024 57.3358C213.239 57.3358 210.543 56.7233 208.932 56.1089V53.9199V49.7583H209.149H209.671H211.454C212.02 49.7583 212.324 50.0655 212.454 50.591C212.498 50.8093 212.585 51.4237 212.759 53.1741C213.934 53.5238 215.325 53.5238 216.283 53.5238C216.936 53.5238 217.502 53.4369 217.935 53.3055C218.413 53.1297 218.763 52.9558 219.066 52.6931C219.369 52.4303 219.588 52.212 219.718 51.8603C219.849 51.5106 219.893 51.159 219.893 50.8093C219.893 50.2838 219.763 49.8896 219.457 49.5399C219.152 49.1902 218.719 48.9275 218.197 48.6647C217.674 48.402 217.108 48.1836 216.456 48.0078C215.803 47.7895 215.107 47.5692 214.412 47.3509C213.717 47.1326 213.063 46.8254 212.41 46.5182C211.758 46.211 211.149 45.8169 210.627 45.3358C210.105 44.8547 209.714 44.2847 209.408 43.5834C209.103 42.8821 208.931 42.0513 208.931 41.0427C208.931 40.1231 209.105 39.2479 209.453 38.4151C209.8 37.5824 210.366 36.8386 211.063 36.2261C211.759 35.6137 212.673 35.0881 213.717 34.7365C214.761 34.3849 215.936 34.1665 217.329 34.1665C219.503 34.1665 220.722 34.3849 223.854 35.349H223.81V41.6996H223.636H223.114H221.331C220.764 41.6996 220.461 41.3924 220.331 40.8669C220.287 40.6486 220.2 40.1231 220.026 38.4151C219.459 38.2393 218.415 38.1079 217.415 38.1079C216.371 38.1079 215.544 38.3263 214.936 38.7648C214.327 39.2034 214.022 39.8159 214.022 40.5597C214.022 41.0408 214.197 41.4349 214.5 41.7866C214.805 42.1363 215.197 42.3565 215.719 42.6193C216.241 42.8821 216.807 43.1448 217.46 43.3206C218.112 43.4965 218.765 43.7148 219.461 43.9331C220.158 44.1514 220.853 44.4586 221.505 44.7658C222.158 45.073 222.724 45.4227 223.246 45.9038C223.768 46.3424 224.16 46.8679 224.465 47.5248C224.77 48.1817 224.943 48.9275 224.943 49.8471Z" fill="#1A2E38"/>
<path d="M242.561 35.0012C243.91 35.5267 245.085 36.2706 246.041 37.2791C246.998 38.2857 247.693 39.4681 248.215 40.9133C248.737 42.3585 248.998 43.935 248.998 45.6874C248.998 47.4823 248.737 49.0589 248.215 50.504C247.693 51.9492 246.996 53.1761 246.041 54.1827C245.083 55.1893 243.908 55.9776 242.561 56.5031C241.212 57.0286 239.69 57.2914 238.035 57.2914C236.381 57.2914 234.817 57.0286 233.468 56.5031C232.119 55.9776 230.944 55.1893 229.988 54.1827C229.03 53.1761 228.247 51.9492 227.725 50.504C227.203 49.0589 226.942 47.4823 226.942 45.6874C226.942 43.935 227.203 42.3585 227.725 40.9133C228.247 39.4681 229.03 38.2857 229.988 37.2791C230.946 36.2725 232.12 35.5267 233.468 35.0012C234.817 34.4757 236.383 34.1685 238.035 34.1685C239.688 34.1685 241.214 34.4757 242.561 35.0012ZM242.127 51.2498C242.997 49.9804 243.476 48.1411 243.476 45.7318C243.476 43.3226 242.999 41.4832 242.127 40.2139C241.258 38.9445 239.909 38.2876 238.037 38.2876C236.166 38.2876 234.775 38.9445 233.861 40.2139C232.948 41.4832 232.47 43.367 232.47 45.7763C232.47 48.1856 232.948 49.9804 233.861 51.2517C234.775 52.5211 236.166 53.1355 238.037 53.1355C239.909 53.1336 241.256 52.5192 242.127 51.2498Z" fill="#1A2E38"/>
</g>
<defs>
<filter id="filter0_d_98_273" x="0" y="0" width="252.998" height="99" filterUnits="userSpaceOnUse" color-interpolation-filters="sRGB">
<feFlood flood-opacity="0" result="BackgroundImageFix"/>
<feColorMatrix in="SourceAlpha" type="matrix" values="0 0 0 0 0 0 0 0 0 0 0 0 0 0 0 0 0 0 127 0" result="hardAlpha"/>
<feOffset dy="4"/>
<feGaussianBlur stdDeviation="2"/>
<feComposite in2="hardAlpha" operator="out"/>
<feColorMatrix type="matrix" values="0 0 0 0 0 0 0 0 0 0 0 0 0 0 0 0 0 0 0.25 0"/>
<feBlend mode="normal" in2="BackgroundImageFix" result="effect1_dropShadow_98_273"/>
<feBlend mode="normal" in="SourceGraphic" in2="effect1_dropShadow_98_273" result="shape"/>
</filter>
</defs>
</svg>
